<svg width="126" height="26" viewBox="0 0 126 26" fill="none" xmlns="http://www.w3.org/2000/svg">
<path fill-rule="evenodd" clip-rule="evenodd" d="M16.6159 4.18235C16.3064 4.63988 15.9684 5.25655 15.6633 5.91828C15.2246 6.87383 14.9918 7.72696 14.9238 8.17168C14.9098 8.26536 14.87 8.35386 14.8094 8.42648C14.7117 8.54428 14.5678 8.61161 14.4155 8.61161C14.3104 8.61161 14.2095 8.57961 14.1237 8.51905C12.913 7.66271 11.7942 7.47832 10.4867 7.46454L10.3821 7.46392C9.01568 7.46392 8.02321 7.76303 6.84352 8.53C6.76116 8.58367 6.66566 8.61198 6.56724 8.61198C6.43026 8.61198 6.30191 8.55831 6.20507 8.46021C6.12758 8.38192 6.07612 8.27976 6.05981 8.17156C5.9923 7.7277 5.75957 6.87457 5.32599 5.93158L5.31516 5.90573C5.01431 5.25373 4.67647 4.63828 4.36786 4.18235C4.23974 3.99316 4.25107 3.73763 4.39529 3.56075C4.49236 3.44111 4.63645 3.37218 4.79034 3.37218C4.86066 3.37218 4.92878 3.38658 4.99314 3.41452C5.33767 3.56506 5.73621 3.73221 6.14461 3.86786C6.21505 3.72729 6.32235 3.6058 6.45641 3.51902C6.49534 3.49342 6.5367 3.47065 6.57953 3.45145C6.58926 3.19899 6.66639 2.95749 6.80727 2.7454C6.90264 2.60127 7.06165 2.51572 7.23245 2.51572C7.29802 2.51572 7.36238 2.52815 7.42333 2.55314C7.65496 2.6473 7.85946 2.80203 8.01348 2.99749C8.03453 2.99343 8.05521 2.99011 8.07662 2.98703C8.18501 2.42611 8.56275 2.11925 8.95059 1.99985C8.95388 1.98705 8.95777 1.9745 8.96191 1.96169C9.07249 1.63637 9.34269 1.39807 9.67639 1.31769C9.73697 1.04542 9.89804 0.793204 10.1577 0.566966C10.2504 0.48585 10.3691 0.441169 10.4917 0.441169C10.6141 0.441169 10.7331 0.485851 10.8259 0.566475C11.0855 0.793206 11.2468 1.04529 11.3073 1.31769C11.6412 1.39807 11.9113 1.63662 12.0217 1.96194C12.0259 1.9745 12.0298 1.98705 12.0331 1.99985C12.4209 2.11925 12.7993 2.42611 12.9077 2.9874C12.9288 2.99023 12.9495 2.99368 12.9703 2.99786C13.1241 2.80203 13.3289 2.64706 13.5607 2.55314C13.6222 2.52791 13.6863 2.51572 13.7512 2.51572C13.9224 2.51572 14.0818 2.60151 14.1765 2.7454C14.3174 2.95749 14.3944 3.19875 14.4042 3.45108C14.4472 3.47065 14.4885 3.49342 14.5274 3.51865C14.6613 3.6058 14.7682 3.72729 14.8388 3.86786C15.2475 3.73258 15.6459 3.56506 15.9909 3.41452C16.0549 3.38658 16.1229 3.37218 16.1936 3.37218C16.347 3.37218 16.491 3.44099 16.5886 3.56075C16.7326 3.73763 16.7438 3.99316 16.6159 4.18235ZM16.9312 3.27543C16.6656 2.94961 16.196 2.83538 15.8152 3.00254C15.5604 3.1132 15.2875 3.22915 15.0019 3.33525C14.9459 3.27703 14.8848 3.22385 14.8193 3.17683C14.7751 2.93509 14.6814 2.70122 14.5456 2.49541C14.3006 2.12553 13.8173 1.96662 13.3953 2.13636C13.2938 2.17772 13.1966 2.22757 13.1042 2.28542C12.9292 2.00724 12.6771 1.78715 12.3731 1.65003C12.2254 1.34674 11.9728 1.10388 11.6614 0.965778C11.553 0.696458 11.3697 0.448184 11.1153 0.226254C10.7687 -0.0753158 10.2139 -0.0756844 9.868 0.226747C9.61422 0.448185 9.43089 0.696458 9.32225 0.965778C9.01081 1.10388 8.75801 1.34674 8.61069 1.65003C8.30618 1.78752 8.05436 2.00748 7.87978 2.28579C7.78744 2.22769 7.69036 2.17809 7.58927 2.13697C7.17394 1.9681 6.68549 2.1238 6.43841 2.49541C6.30264 2.7006 6.20884 2.93435 6.16468 3.17683C6.09874 3.22422 6.03767 3.27703 5.98183 3.33525C5.68633 3.22533 5.40786 3.10667 5.1693 3.00266C4.78414 2.83403 4.31677 2.94961 4.05297 3.27506C3.78393 3.60531 3.7629 4.08277 4.00173 4.43579C4.29674 4.87239 4.61929 5.45978 4.90822 6.08606L4.92367 6.12114C5.33767 7.02154 5.55811 7.82494 5.62113 8.23902C5.65154 8.44051 5.74728 8.63192 5.89132 8.77803C6.07198 8.96044 6.31201 9.06088 6.56724 9.06088C6.75082 9.06088 6.92953 9.00796 7.08379 8.90752C8.18416 8.19163 9.10862 7.91283 10.3793 7.91283L10.4821 7.91369C11.7073 7.92649 12.7524 8.09709 13.8695 8.88684C14.0302 9.00069 14.2189 9.06064 14.4155 9.06064C14.6988 9.06064 14.9661 8.93521 15.1492 8.71562C15.2627 8.57862 15.3365 8.41368 15.3621 8.24049C15.4258 7.82445 15.6482 7.01624 16.066 6.1076C16.3598 5.46827 16.6852 4.87449 16.982 4.43579C17.2206 4.0829 17.1999 3.60593 16.9312 3.27543Z" fill="white"/>
<path fill-rule="evenodd" clip-rule="evenodd" d="M5.13323 17.7546H8.23435C8.11853 17.515 8.03447 17.2411 7.98435 16.9326C7.93191 16.6216 7.90697 16.1956 7.90697 15.6568V13.3087C8.04566 13.1794 8.18483 13.0805 8.3234 13.016C8.46415 12.9514 8.59846 12.917 8.72632 12.917C8.93533 12.917 9.09178 12.9977 9.20601 13.1474C9.31903 13.2946 9.37937 13.4995 9.37937 13.7735V16.3392C9.37937 16.8342 9.35236 17.2444 9.29969 17.5712C9.24762 17.8957 9.16051 18.1856 9.04251 18.4369H12.1375C12.0167 18.1812 11.9302 17.8863 11.8781 17.5574C11.8255 17.2258 11.7981 16.8205 11.7981 16.3392V13.3087C11.9327 13.1749 12.06 13.0782 12.1827 13.0181C12.3036 12.9606 12.4309 12.9307 12.5583 12.9307C12.8221 12.9307 13.0064 12.9999 13.1136 13.1332C13.2296 13.2648 13.2867 13.4789 13.2867 13.7735V15.6568C13.2867 16.1703 13.2593 16.5871 13.2048 16.9117C13.1521 17.2339 13.0681 17.515 12.9563 17.7546H16.0583C15.9332 17.5034 15.8444 17.2111 15.7922 16.877C15.7398 16.5456 15.7124 16.1381 15.7124 15.6568V12.7558C15.7124 12.1433 15.5281 11.6873 15.1592 11.3901C14.7906 11.091 14.2357 10.9412 13.4914 10.9412C13.0523 10.9412 12.6603 10.9918 12.3149 11.0958C11.9712 11.1992 11.6686 11.3513 11.4115 11.5492C11.1819 11.3513 10.9198 11.1992 10.6332 11.0958C10.3443 10.9918 10.0347 10.9412 9.70687 10.9412C9.502 10.9412 9.31526 10.9576 9.14689 10.9873C8.97645 11.0195 8.80576 11.0656 8.63265 11.1301C8.29591 11.2615 7.98848 11.4526 7.7133 11.7037L7.60429 10.7694L5.07617 11.2689C5.18761 11.4831 5.32715 11.8969 5.38092 12.1662C5.43408 12.4331 5.46024 12.7167 5.46024 13.0181V15.6568C5.46024 16.1681 5.43311 16.5871 5.38092 16.9117C5.32605 17.2339 5.24418 17.515 5.13323 17.7546Z" fill="white"/>
<path fill-rule="evenodd" clip-rule="evenodd" d="M10.2305 1.88698C9.8654 1.70062 9.53608 1.88353 9.4508 2.13476C9.92537 2.25255 10.1909 2.39374 10.2309 2.87588L10.2182 2.88523C10.0053 2.55511 9.69435 2.45639 9.34374 2.46205C8.96101 2.4687 8.59337 2.70934 8.56417 3.25179C8.54227 3.66156 8.80493 4.0328 9.25019 4.01852C9.81199 4.00042 10.027 3.3739 9.72671 3.15862C9.48304 2.98457 9.2941 3.21314 9.30128 3.35014C9.21479 3.41181 9.14921 3.3254 9.1469 3.21831C9.14362 3.04168 9.37111 2.95859 9.48693 2.95921C9.65907 2.9602 9.88717 3.06113 10.0201 3.24072C10.0192 3.25278 10.0188 3.26521 10.0188 3.27715C10.0188 3.43409 10.0927 3.5733 10.207 3.66156C10.1175 3.90971 10.0165 4.17078 9.90956 4.39567C9.26211 4.43358 8.67682 4.53242 8.15018 4.67089C8.06173 4.42201 8.09422 4.24722 8.17719 4.13385C8.28996 3.97913 8.49702 3.93679 8.61855 3.97174C8.57549 3.64026 8.39446 3.49317 8.18935 3.50167C8.05723 3.50696 7.91538 3.57626 7.79324 3.70193C7.74202 3.456 7.5739 3.17499 7.23728 3.03823C7.03703 3.3403 7.07791 3.66168 7.17535 3.89297C7.00418 3.86146 6.84883 3.88694 6.73776 3.95919C6.56489 4.07194 6.49968 4.29756 6.65224 4.59359C6.73216 4.49451 6.92499 4.40871 7.10577 4.47026C7.23801 4.51531 7.36295 4.63963 7.43156 4.89541C6.97085 5.06293 6.56452 5.25939 6.20844 5.46347C6.11768 5.05493 6.28629 4.73798 6.50625 4.51568C5.93921 4.37388 5.36244 4.14247 4.79492 3.89469C5.14602 4.41339 5.49785 5.07057 5.79566 5.71789C6.24737 6.70002 6.49518 7.60227 6.5706 8.09758L6.57219 8.09918C7.89847 7.2362 9.01491 6.93587 10.4965 6.9515C11.9786 6.96701 13.1569 7.20482 14.4216 8.09918L14.423 8.09758C14.4982 7.60227 14.7468 6.70027 15.1984 5.71814C15.4962 5.07081 15.8477 4.41339 16.1988 3.89469C15.6313 4.14247 15.0547 4.37388 14.487 4.51568C14.7074 4.73798 14.8761 5.05456 14.7851 5.46359C14.4287 5.25938 14.0219 5.06293 13.5614 4.89516C13.6298 4.63926 13.7555 4.51531 13.8879 4.47026C14.0684 4.40871 14.2613 4.49451 14.341 4.59359C14.4935 4.29756 14.4287 4.07194 14.2557 3.95919C14.1447 3.88694 13.9888 3.86146 13.818 3.89297C13.9154 3.66168 13.9567 3.3403 13.7564 3.03823C13.4197 3.17499 13.2514 3.456 13.2001 3.70193C13.0777 3.57626 12.936 3.50696 12.8044 3.50167C12.5989 3.49317 12.4179 3.64026 12.375 3.97174C12.4967 3.93679 12.7035 3.97913 12.8163 4.13385C12.8994 4.24759 12.9314 4.42201 12.8432 4.67089C12.316 4.5323 11.7309 4.43358 11.0832 4.39567C10.9757 4.17177 10.8736 3.91131 10.7833 3.66402C10.8989 3.57577 10.9749 3.4352 10.9749 3.27715C10.9749 3.26509 10.9739 3.25278 10.9731 3.24072C11.1058 3.06113 11.3345 2.9602 11.5069 2.95921C11.6221 2.95859 11.8497 3.04168 11.8459 3.21831C11.8441 3.3254 11.7788 3.41181 11.6925 3.35014C11.6997 3.21314 11.5104 2.98457 11.267 3.15862C10.9664 3.3739 11.1818 4.00042 11.7436 4.01852C12.1884 4.0328 12.4511 3.66156 12.4295 3.25179C12.4005 2.70934 12.0322 2.4687 11.6498 2.46205C11.3051 2.45639 10.9852 2.56532 10.7719 2.88302C10.7647 2.8776 10.7573 2.8728 10.7501 2.86788C10.7972 2.40272 11.0757 2.25083 11.5425 2.13476C11.4575 1.88353 11.1283 1.70062 10.7629 1.88698C10.9175 1.48066 10.782 1.21269 10.4965 0.963928C10.2115 1.21269 10.0761 1.48066 10.2305 1.88698ZM10.299 5.76196L9.56467 5.56169L10.299 5.36167L10.4972 4.61846L10.6947 5.36167L11.4293 5.56169L10.6947 5.76196L10.4972 6.50493L10.299 5.76196ZM13.2753 5.01173L13.2113 5.77858L13.8348 6.21924L13.0767 6.15462L12.641 6.78545L12.7052 6.01872L12.0817 5.57757L12.8394 5.64244L13.2753 5.01173ZM7.78229 5.77882L7.71806 5.01173L8.15395 5.64244L8.91198 5.57745L8.2885 6.01836L8.35237 6.78545L7.91709 6.15511L7.15881 6.21948L7.78229 5.77882Z" fill="white"/>
<path d="M1.90915 12.6451C1.93263 12.6637 1.96203 12.6716 1.99111 12.6664C2.0008 12.6758 2.0123 12.6835 2.02544 12.6886C2.03775 12.6935 2.0509 12.6958 2.06354 12.6958C2.09492 12.6958 2.12564 12.6817 2.146 12.6558C2.27264 12.4955 2.41554 12.4561 2.58078 12.4103C2.71875 12.3725 2.87497 12.3293 3.02691 12.2119C3.34703 11.9754 3.3582 11.597 3.3421 11.2294C3.34013 11.1863 3.31254 11.1482 3.2723 11.1336C3.2319 11.1188 3.18705 11.1301 3.15814 11.1628C3.02904 11.3076 2.89549 11.3588 2.7411 11.4182C2.62644 11.462 2.49668 11.5118 2.35986 11.6056L2.35789 11.6067C2.30927 11.6416 2.2664 11.6804 2.22927 11.7223C2.26706 11.5914 2.29548 11.4508 2.29285 11.2867C2.28118 10.8001 2.00195 10.5568 1.69216 10.3306C1.65735 10.3048 1.61086 10.3037 1.57456 10.3266C1.53826 10.3495 1.51921 10.3925 1.52643 10.4353C1.57143 10.7002 1.52611 10.9037 1.47387 11.1391C1.43921 11.2945 1.4034 11.4552 1.38977 11.6488C1.35528 12.1366 1.6189 12.4159 1.90915 12.6451Z" fill="white"/>
<path d="M0.519826 13.5729C0.50406 13.767 0.487807 13.9676 0.505374 14.1923C0.550374 14.7369 0.925049 14.9334 1.32304 15.0641C1.34669 15.0721 1.37183 15.0707 1.39416 15.0618C1.40155 15.0651 1.4091 15.0677 1.41716 15.0691C1.42373 15.0704 1.43047 15.0711 1.43047 15.0711C1.47564 15.0711 1.5121 15.0493 1.53049 15.0136C1.65451 14.7731 1.81745 14.6692 2.00635 14.549C2.16387 14.4488 2.32664 14.3449 2.47578 14.1559C2.78146 13.7761 2.72447 13.36 2.63264 12.9316C2.62329 12.8876 2.58813 12.8548 2.5446 12.8485C2.50058 12.8425 2.45771 12.8637 2.43685 12.9031C2.3112 13.1373 2.16157 13.2552 1.98877 13.3916C1.86409 13.4898 1.73532 13.5915 1.60178 13.7454C1.60112 13.7461 1.60063 13.7465 1.6003 13.7472C1.55234 13.8048 1.51177 13.8639 1.47777 13.9242C1.49813 13.7612 1.50586 13.5917 1.47399 13.4099C1.37905 12.8581 0.993212 12.7094 0.590459 12.6307C0.553172 12.6242 0.51507 12.6373 0.490434 12.6658C0.465787 12.6949 0.458232 12.735 0.470884 12.7711C0.563197 13.0367 0.54316 13.2853 0.519826 13.5729Z" fill="white"/>
<path d="M0.681429 17.1066C0.863924 17.3671 1.12475 17.4463 1.40497 17.4463C1.59354 17.4463 1.79098 17.4103 1.97954 17.3695C2.01157 17.3625 2.03802 17.3412 2.05215 17.3122C2.06069 17.3122 2.06923 17.3112 2.07809 17.3089C2.12097 17.2978 2.15234 17.2608 2.15694 17.2164C2.18306 16.9625 2.29902 16.7963 2.43322 16.6042C2.54901 16.4384 2.66876 16.2669 2.73643 16.0264C2.87276 15.5433 2.64905 15.2121 2.38722 14.8879C2.36012 14.8544 2.31544 14.8403 2.27437 14.8536C2.23348 14.8664 2.20408 14.9029 2.20047 14.9461C2.17615 15.2232 2.0753 15.4102 1.95852 15.6262C1.88082 15.7702 1.80017 15.9193 1.73414 16.1091C1.68717 16.2455 1.66812 16.3734 1.67057 16.493C1.61423 16.2765 1.55067 16.0552 1.38789 15.8582C1.24466 15.6858 1.06234 15.5986 0.846345 15.5986C0.590601 15.5986 0.316791 15.7173 0.0589054 15.8457C0.0244161 15.8627 0.00173974 15.8978 9.73868e-05 15.9366C-0.00154496 15.9755 0.0176765 16.0125 0.0508519 16.0327C0.259138 16.1602 0.337971 16.3628 0.42914 16.5969C0.491063 16.7562 0.561367 16.9368 0.681429 17.1066Z" fill="white"/>
<path d="M2.97384 19.3517C2.99782 19.3395 3.01571 19.3191 3.02508 19.2952C3.03953 19.3058 3.05416 19.3162 3.06878 19.3267C3.10408 19.3523 3.15107 19.3527 3.18737 19.3287C3.22367 19.3048 3.24157 19.2607 3.23303 19.218C3.17899 18.9537 3.25503 18.7454 3.34292 18.5039C3.41995 18.293 3.49928 18.075 3.49617 17.8014C3.48631 17.2455 3.11378 16.9835 2.73303 16.7628C2.69706 16.7416 2.65206 16.744 2.61855 16.7689C2.58488 16.7938 2.56878 16.836 2.57716 16.8773C2.63794 17.1691 2.58423 17.396 2.52229 17.6592C2.48107 17.8349 2.4382 18.0162 2.42522 18.2333C2.40403 18.5943 2.54381 18.8517 2.74552 19.0579C2.59424 18.9588 2.49388 18.8144 2.38268 18.654C2.24454 18.4549 2.10147 18.2487 1.83802 18.1103C1.72648 18.0579 1.60969 18.0314 1.49062 18.0314C1.0849 18.0314 0.684941 18.3441 0.34214 18.6369C0.309451 18.6647 0.296641 18.7098 0.30978 18.751C0.322761 18.7923 0.359063 18.8215 0.401764 18.8249C0.700866 18.8492 0.851001 18.9955 1.04121 19.1806C1.15997 19.2963 1.29465 19.4276 1.47714 19.5318C1.634 19.6286 1.79924 19.6678 1.96777 19.6678C2.30548 19.6678 2.6555 19.5115 2.97384 19.3517Z" fill="white"/>
<path d="M18.2302 11.4182C18.0758 11.359 17.9426 11.3078 17.8135 11.1628C17.7847 11.1307 17.7396 11.1192 17.6995 11.1339C17.659 11.1483 17.6315 11.1863 17.6297 11.2298C17.613 11.6122 17.6244 11.9749 17.9433 12.2112C18.097 12.3296 18.2532 12.3725 18.3908 12.4106C18.5559 12.4561 18.6989 12.4955 18.8258 12.6559C18.8461 12.6817 18.877 12.6959 18.9081 12.6959C18.9211 12.6959 18.9339 12.6935 18.9464 12.6886C18.9595 12.6836 18.971 12.6758 18.9808 12.6665C19.0093 12.6716 19.0391 12.6638 19.0627 12.6452C19.3526 12.4163 19.6162 12.1368 19.582 11.649C19.5682 11.4558 19.5325 11.2952 19.4981 11.14C19.4455 10.9043 19.4 10.7006 19.4451 10.4353C19.4523 10.3926 19.4334 10.3495 19.3969 10.3266C19.3606 10.3038 19.3141 10.3051 19.2792 10.3306C18.9691 10.5568 18.6901 10.8002 18.6787 11.2867C18.6759 11.4505 18.7044 11.5914 18.7421 11.7226C18.7044 11.6801 18.661 11.6409 18.6115 11.6057C18.4746 11.5119 18.3448 11.4623 18.2302 11.4182Z" fill="white"/>
<path d="M17.7162 10.4817C17.9306 10.6273 18.1157 10.7528 18.2162 11.0556C18.2307 11.0991 18.2711 11.1284 18.3162 11.1284H18.3175C18.3634 11.1277 18.4036 11.0973 18.4171 11.0531C18.5767 10.5276 18.682 9.97767 18.3747 9.5135C18.2448 9.31852 18.1022 9.18879 17.9762 9.07444C17.8008 8.91467 17.6488 8.77656 17.5632 8.49703C17.5503 8.45456 17.5126 8.4244 17.4685 8.42194C17.4246 8.41886 17.3837 8.44471 17.3658 8.48533C17.1181 9.05253 16.9358 9.55818 17.2143 10.0049C17.3554 10.2369 17.539 10.3615 17.7162 10.4817Z" fill="white"/>
<path d="M2.68199 11.1284H2.6833C2.72864 11.1284 2.76888 11.0991 2.78334 11.0555C2.88386 10.7527 3.06914 10.6273 3.28366 10.4821C3.46121 10.3616 3.64502 10.2367 3.78546 10.0055C4.0637 9.55939 3.88154 9.05312 3.63418 8.48543C3.6166 8.44506 3.57883 8.41945 3.53152 8.42192C3.4875 8.42438 3.44972 8.45429 3.43691 8.49688C3.35101 8.77678 3.19923 8.91464 3.02347 9.07441C2.89766 9.18889 2.75476 9.31875 2.62483 9.51348C2.31768 9.9774 2.4228 10.5279 2.58262 11.0531C2.59608 11.0973 2.63616 11.1277 2.68199 11.1284Z" fill="white"/>
<path d="M19.5152 13.9255C19.4805 13.8642 19.4396 13.8042 19.391 13.7454C19.2573 13.5914 19.1284 13.4896 19.0036 13.3912C18.8308 13.2549 18.6812 13.1371 18.5557 12.9031C18.5348 12.8637 18.491 12.8423 18.4482 12.8485C18.4042 12.8547 18.3692 12.888 18.3599 12.9315C18.2683 13.36 18.2117 13.7761 18.5165 14.1553C18.6662 14.345 18.8287 14.4485 18.9862 14.5489C19.1749 14.6692 19.3381 14.7731 19.4623 15.0136C19.4806 15.0493 19.517 15.0711 19.5557 15.0711C19.5621 15.0711 19.5687 15.0703 19.5754 15.0691C19.5833 15.0676 19.5912 15.065 19.5984 15.0617C19.6208 15.0707 19.6461 15.0719 19.6699 15.0641C20.0675 14.9333 20.4421 14.7371 20.4871 14.1921C20.5045 13.9677 20.4882 13.7674 20.4724 13.5736C20.4493 13.2855 20.4291 13.037 20.5216 12.771C20.5342 12.735 20.5265 12.6948 20.5019 12.6658C20.4774 12.6369 20.4394 12.6237 20.4019 12.6306C19.9995 12.7094 19.614 12.8579 19.5186 13.4096C19.4868 13.5922 19.4945 13.762 19.5152 13.9255Z" fill="white"/>
<path d="M15.7142 21.7518C15.3324 21.7524 15.0446 21.8927 14.7664 22.0285C14.5402 22.1388 14.3235 22.2443 14.0688 22.2635C14.4445 22.1615 14.7847 21.9801 14.9787 21.5807C15.0858 21.3674 15.1425 21.1728 15.1973 20.9846C15.2809 20.6975 15.3532 20.45 15.5883 20.198C15.6176 20.1664 15.6254 20.1204 15.608 20.081C15.5906 20.0416 15.5534 20.0219 15.509 20.0178C14.9892 20.0316 14.4553 20.0899 14.1349 20.628L14.134 20.629C13.9783 20.8982 13.9408 21.153 13.9046 21.3996C13.8632 21.6803 13.8277 21.9228 13.6265 22.1628C13.598 22.1968 13.5935 22.2455 13.6153 22.2845C13.634 22.3176 13.6682 22.3376 13.7052 22.3384C13.6986 22.3699 13.7064 22.4035 13.7277 22.4289C14.0959 22.8691 14.5379 23.3315 15.1553 23.3315C15.2002 23.3315 15.2456 23.3291 15.2923 23.324C15.5575 23.3078 15.7762 23.2504 15.9879 23.1949C16.3345 23.1042 16.6338 23.0261 17.0464 23.1599C17.0873 23.1737 17.1323 23.1602 17.1599 23.1266C17.1876 23.0931 17.1921 23.0457 17.1713 23.0073C16.8406 22.3921 16.456 21.788 15.7142 21.7518Z" fill="white"/>
<path d="M17.9569 20.211C17.8927 20.211 17.8269 20.2167 17.7614 20.228C17.7614 20.228 17.7574 20.2286 17.7556 20.2291C17.4118 20.3087 17.1843 20.4978 16.9647 20.6805C16.7912 20.8247 16.6252 20.9631 16.4084 21.0353C16.7326 20.8565 17.0011 20.6058 17.0849 20.1792C17.132 19.9409 17.1338 19.7335 17.1355 19.5329C17.1384 19.2319 17.1406 18.9721 17.2954 18.6715C17.3146 18.6342 17.3101 18.5887 17.2838 18.5556C17.2575 18.5228 17.2145 18.5086 17.1741 18.5194C16.6782 18.6544 16.1799 18.837 16.0143 19.4394C15.9346 19.7375 15.964 19.9953 15.9925 20.2439C16.0253 20.5298 16.0535 20.7768 15.9172 21.0558C15.8978 21.0953 15.9046 21.143 15.9343 21.1755C15.964 21.2078 16.0103 21.2182 16.0511 21.202C16.0533 21.2011 16.0553 21.2004 16.0576 21.1995C16.0595 21.2294 16.0742 21.258 16.0992 21.277C16.4797 21.5663 16.9141 21.8603 17.3927 21.8603C17.5108 21.8603 17.6314 21.8426 17.7544 21.8023C17.9944 21.7367 18.1797 21.6411 18.3589 21.549C18.6461 21.4009 18.8942 21.2731 19.292 21.3282C19.3355 21.3331 19.3781 21.3125 19.399 21.2733C19.4199 21.2342 19.4148 21.1862 19.3859 21.1526C18.9785 20.6762 18.5324 20.211 17.9569 20.211Z" fill="white"/>
<path d="M19.4781 18.0309C19.3589 18.0309 19.242 18.0575 19.1301 18.1098C19.1287 18.1105 19.1271 18.1112 19.1258 18.112C18.8669 18.2483 18.7241 18.4542 18.5855 18.6536C18.4748 18.8136 18.3745 18.958 18.2234 19.0571C18.4248 18.8512 18.5644 18.5943 18.5441 18.233C18.5309 18.0158 18.4882 17.8343 18.4466 17.6589C18.3846 17.3959 18.3308 17.1685 18.3916 16.8767C18.4003 16.8356 18.3842 16.7932 18.3504 16.7685C18.3169 16.7434 18.2717 16.7409 18.2359 16.7622C17.8549 16.983 17.4825 17.245 17.4728 17.8008C17.4695 18.0739 17.549 18.2928 17.6258 18.5037C17.7139 18.7449 17.7899 18.9536 17.736 19.2175C17.7271 19.2602 17.7453 19.3043 17.7815 19.3281C17.8175 19.3523 17.8647 19.3518 17.9004 19.3262C17.9146 19.3158 17.9292 19.3052 17.9437 19.2947C17.9531 19.3189 17.9709 19.3391 17.9951 19.3512C18.3138 19.5113 18.6646 19.6677 19.0018 19.6677C19.169 19.6677 19.3332 19.6291 19.4883 19.5332C19.6736 19.4271 19.8083 19.2959 19.927 19.1804C20.1174 18.9949 20.2675 18.8487 20.5667 18.8243C20.6094 18.821 20.6455 18.7917 20.6587 18.7505C20.6718 18.7095 20.659 18.6644 20.6263 18.6365C20.2835 18.3434 19.8841 18.0309 19.4781 18.0309Z" fill="white"/>
<path d="M20.92 15.8454C20.6623 15.7173 20.3883 15.5986 20.1323 15.5986C19.9165 15.5986 19.7341 15.6858 19.591 15.8584C19.4283 16.0556 19.3643 16.2775 19.3081 16.4942C19.3105 16.3742 19.2918 16.2465 19.2445 16.1091C19.1785 15.9193 19.0979 15.7701 19.0202 15.6258C18.9035 15.4096 18.8025 15.223 18.7784 14.9461C18.7747 14.9027 18.7452 14.8661 18.7043 14.8536C18.6635 14.8403 18.6187 14.8544 18.5914 14.8879C18.3296 15.2119 18.1063 15.5429 18.2423 16.026C18.31 16.2665 18.4296 16.438 18.5453 16.6039C18.6795 16.7963 18.7956 16.9625 18.8216 17.2164C18.8262 17.2608 18.8577 17.2978 18.9006 17.3089C18.9094 17.3112 18.9167 17.3089 18.9271 17.3122C18.941 17.3411 18.9676 17.3624 18.9996 17.3695C19.188 17.4103 19.3855 17.4463 19.5744 17.4463C19.8546 17.4463 20.1153 17.3671 20.2974 17.107C20.4175 16.9369 20.4878 16.7563 20.5497 16.5969C20.6411 16.3628 20.7199 16.1605 20.9284 16.0325C20.9615 16.0125 20.9808 15.9757 20.979 15.9366C20.9776 15.8978 20.9547 15.8627 20.92 15.8454Z" fill="white"/>
<path d="M9.20322 22.2764C9.11331 22.0437 9.02037 21.803 8.80552 21.5662C8.55552 21.3 8.25917 21.1759 7.8734 21.1759C7.68313 21.1759 7.48666 21.2067 7.33641 21.2335C7.2942 21.241 7.26074 21.2738 7.25186 21.3163C7.24262 21.3588 7.26026 21.4024 7.29566 21.427C7.58848 21.6283 7.71646 21.8579 7.86476 22.1241C7.95795 22.2913 8.05455 22.4645 8.19919 22.645C8.33666 22.8204 8.49737 22.9349 8.66939 23.0098C8.64567 23.0037 8.62219 22.9976 8.59871 22.9917L8.55382 22.9799C8.3408 22.9249 8.12073 22.8678 7.87547 22.8678C7.76951 22.8678 7.66805 22.8784 7.56537 22.9003L7.56062 22.9012C6.85745 23.0848 6.62436 23.7184 6.42984 24.4071C6.41804 24.449 6.43251 24.494 6.46645 24.5206C6.48568 24.5358 6.50843 24.5433 6.53142 24.5433C6.54967 24.5433 6.56804 24.5385 6.58446 24.529C6.86329 24.3654 7.10235 24.3372 7.3768 24.3419C7.45357 24.3435 7.53094 24.3483 7.60977 24.3531C7.81537 24.3656 8.0279 24.3786 8.27328 24.3459C8.88569 24.2845 9.25784 23.8381 9.62791 23.1868C9.6402 23.1652 9.64434 23.1407 9.64069 23.1174C9.65322 23.1053 9.66307 23.0906 9.66879 23.0735C9.68351 23.0306 9.66964 22.9827 9.63436 22.9549C9.39105 22.762 9.30407 22.537 9.20322 22.2764Z" fill="white"/>
<path d="M7.23941 22.4293C7.2607 22.4039 7.26873 22.3703 7.26228 22.339C7.29902 22.3385 7.33369 22.3183 7.35267 22.2849C7.37445 22.2459 7.37007 22.1973 7.34148 22.1631C7.14026 21.9232 7.10437 21.6807 7.06325 21.3997C7.02688 21.1534 6.98929 20.8986 6.83296 20.6283C6.51228 20.0904 5.97809 20.032 5.45862 20.0182C5.41288 20.0134 5.37674 20.0421 5.35935 20.0815C5.34219 20.1208 5.34986 20.1669 5.37906 20.1984C5.61458 20.4503 5.68697 20.6982 5.77054 20.9851C5.82517 21.1729 5.8821 21.3672 5.98879 21.5806C6.1776 21.9687 6.48916 22.154 6.89792 22.2638C6.64354 22.2447 6.42736 22.1392 6.20157 22.029C5.9231 21.893 5.63514 21.7528 5.24791 21.7523C4.51151 21.7885 4.12698 22.3924 3.796 23.0077C3.77548 23.0461 3.77991 23.0932 3.80734 23.127C3.8351 23.1606 3.8801 23.1744 3.92085 23.1602C4.33345 23.0272 4.63294 23.1046 4.97966 23.1957C5.19134 23.2508 5.4102 23.3083 5.67054 23.324C5.7175 23.3292 5.76373 23.3315 5.80899 23.3315C6.43028 23.3315 6.87165 22.8694 7.23941 22.4293Z" fill="white"/>
<path d="M4.9085 21.2001C4.91056 21.2011 4.91288 21.2019 4.91507 21.2028C4.9557 21.2193 5.00205 21.209 5.03161 21.1763C5.06154 21.1438 5.06823 21.0961 5.04889 21.0566C4.91251 20.7775 4.94086 20.5305 4.97346 20.2446C5.00193 19.996 5.03161 19.7388 4.95181 19.4402C4.78623 18.8379 4.28773 18.6552 3.79135 18.5203C3.75143 18.5095 3.7079 18.5236 3.68178 18.5564C3.65566 18.5896 3.65107 18.6349 3.67029 18.6727C3.82518 18.9733 3.82765 19.2334 3.83043 19.5345C3.8324 19.735 3.83438 19.9422 3.88119 20.1801C3.96513 20.6064 4.23352 20.8574 4.55744 21.0363C4.34094 20.9638 4.17472 20.8257 4.00143 20.6816C3.78149 20.4986 3.55432 20.3097 3.20463 20.2288C3.13925 20.2175 3.07355 20.2118 3.00932 20.2118C2.43295 20.2118 1.98733 20.677 1.58031 21.1534C1.55173 21.1871 1.54647 21.2351 1.5675 21.2741C1.58835 21.3133 1.63139 21.3339 1.67459 21.329C2.07159 21.2741 2.32011 21.4016 2.60739 21.5497C2.78676 21.642 2.97187 21.7374 3.20725 21.8016C3.33176 21.8423 3.45363 21.8602 3.57256 21.8602C4.05285 21.8602 4.48663 21.5668 4.86653 21.2778C4.89134 21.2589 4.90618 21.2304 4.9085 21.2001Z" fill="white"/>
<path d="M13.4039 22.9003C13.3014 22.8784 13.1999 22.8678 13.0938 22.8678C12.8492 22.8678 12.6292 22.9248 12.4166 22.9798L12.3709 22.9917C12.3477 22.9974 12.3246 23.0035 12.3014 23.0093C12.473 22.9347 12.6329 22.8205 12.7697 22.6462C12.9154 22.4642 13.0118 22.2911 13.1055 22.1233C13.2536 21.8576 13.3812 21.6279 13.6741 21.427C13.7095 21.4026 13.727 21.3588 13.7178 21.3163C13.7089 21.2738 13.6755 21.241 13.6332 21.2335C13.4828 21.2067 13.2859 21.176 13.0961 21.176C12.7102 21.176 12.4141 21.3 12.1641 21.5662L12.1629 21.5678C11.949 21.803 11.8561 22.0441 11.7661 22.2769C11.6656 22.537 11.5788 22.762 11.3353 22.9549C11.3001 22.9829 11.2861 23.0304 11.3005 23.0733C11.3066 23.0904 11.3162 23.1053 11.3285 23.1171C11.3251 23.1407 11.3292 23.1652 11.3415 23.1868C11.7116 23.8381 12.0832 24.2845 12.6933 24.3457C12.9419 24.3784 13.1544 24.3654 13.36 24.3531C13.4391 24.3483 13.5161 24.3435 13.5931 24.3419C13.8661 24.3365 14.1061 24.3652 14.3853 24.529C14.4016 24.5385 14.4201 24.5433 14.4382 24.5433C14.4612 24.5433 14.484 24.5358 14.503 24.5206C14.5369 24.4939 14.5513 24.449 14.5393 24.4071C14.3448 23.7183 14.1115 23.0847 13.4039 22.9003Z" fill="white"/>
<path d="M78.2216 11.4864L78.2236 19.8119L78.2028 19.7829L77.7876 19.2108L75.5332 16.1334L74.9286 15.2944L74.5302 14.7333L74.3418 14.4639L76.9751 9.90717L76.6105 11.4864H78.2216ZM58.3493 8.11424L63.2351 14.7118L60.9587 18.5744L58.3493 8.11424ZM123.155 11.0497H120.098V23.8275H112.125V10.9735H106.901L106.539 12.3763H107.654L107.041 14.4676L106.964 14.7178L106.883 14.9623L106.796 15.2003L106.703 15.4375L106.602 15.6675L106.49 15.8973L106.368 16.1222L106.213 16.3699L106.067 16.5758L105.879 16.806L105.713 16.9817L105.883 16.9894L106.115 17.0064L106.346 17.03L106.575 17.0611L106.805 17.1009L107.031 17.1478L107.259 17.2045L107.484 17.2708L107.71 17.3477L107.93 17.4341L108.151 17.5328L108.365 17.6427L108.578 17.7663L108.785 17.902L108.986 18.0514L109.19 18.221L109.39 18.4129L109.565 18.6027L109.731 18.8052L109.884 19.0189L110.026 19.2436L110.155 19.4782L110.26 19.6973L110.364 19.9452L110.456 20.208L110.534 20.4737L110.601 20.751L110.654 21.0282L110.695 21.3174L110.723 21.609L110.74 21.9105L110.773 23.8275H93.9997V20.9493L93.9854 20.9711L93.88 21.1232L93.7723 21.2692L93.6556 21.4169L93.5386 21.5566L93.4139 21.6957L93.2875 21.8299L93.155 21.9616L93.0181 22.0914L92.8753 22.2181L92.7309 22.3406L92.5809 22.4602L92.4273 22.577L92.2691 22.6911L92.0738 22.8223L91.9281 22.9142L91.7313 23.0288L91.5319 23.1345L91.3297 23.2325L91.1684 23.3036L90.9624 23.3858L90.8015 23.4437L90.5906 23.511L90.3693 23.5715L90.1959 23.6117L90.0276 23.6456L89.8012 23.6835L89.6232 23.7076L89.3858 23.7309L89.1483 23.7469L88.904 23.7547L88.7832 23.7562H80.1652L81.234 25.3326L77.639 25.3129L77.0705 25.3017L76.5342 25.2831L76.0276 25.2564L75.55 25.2195L75.0929 25.1714L74.6618 25.1127L74.2477 25.0402L73.8506 24.9533L73.4681 24.8504L73.0873 24.7251L72.7291 24.5821L72.3857 24.4198L72.036 24.2243L71.7314 24.0238L71.4494 23.8131L71.1806 23.5845L70.9183 23.3354L70.6694 23.0741L70.4322 22.8017L70.2049 22.5199L69.9838 22.2286L69.7663 21.9276L69.5491 21.6168L69.3284 21.2926L68.839 20.5638L67.1406 23.3599H53.6002L53.2688 21.3316H50.6334L50.585 21.4148L50.4401 21.6365L50.2773 21.8535L50.1246 22.0336L49.9485 22.2162L49.7402 22.4027L49.5374 22.5587L49.3465 22.6839L49.13 22.8078L48.9087 22.9149L48.6696 23.0113L48.4684 23.0798L48.2454 23.1442L48.0165 23.1969L47.7896 23.2401L47.5624 23.2738L47.3374 23.3003L47.1068 23.3201L46.8776 23.335L46.6444 23.3463L46.4104 23.3533L46.1688 23.3581L45.9231 23.3605L45.4142 23.362L43.905 23.3586L43.8472 23.3594L36.7751 23.3599V15.444L34.9211 17.7817L32.7797 15.4034V23.3599H24.9182V10.683H23.4091L25.1531 2.69006H32.192L34.7449 5.79856L34.826 5.69455L35.0033 5.47422L35.1858 5.2566L35.3737 5.04439L35.5694 4.83625L35.7733 4.63364L35.9901 4.43547L36.2181 4.24443L36.4602 4.0614L36.7138 3.8892L36.9833 3.72586L37.2636 3.57618L37.5598 3.43795L37.8646 3.31461L38.1835 3.20383L38.5138 3.10548L38.8571 3.01981L39.2127 2.94522L39.5842 2.88195L39.9688 2.82878L40.3714 2.78508L40.7911 2.75L41.2334 2.72378L41.6943 2.70544L42.1799 2.69424L44.2715 2.6791V17.6878L45.91 12.6902H44.6752L47.4022 6.34138H57.2337L60.7114 20.2835L64.0205 14.6701L55.5153 3.18451L59.2945 3.20913L59.8863 3.22193L60.4443 3.24285L60.9752 3.27399L61.4773 3.31597L61.9549 3.36939L62.4107 3.43549L62.8466 3.51611L63.2656 3.612L63.6684 3.72561L64.0561 3.85694L64.4427 4.01352L64.8047 4.18818L65.1487 4.38266L65.4771 4.59782L65.7988 4.84019L66.0718 5.07233L66.3497 5.33673L66.6128 5.61503L66.8637 5.90479L67.1038 6.20549L67.3367 6.51814L67.5641 6.83928L67.79 7.17224L68.0176 7.51886L68.2486 7.87693L68.577 8.3939L68.7115 8.22084L68.8925 8.00408L69.076 7.80024L69.2726 7.60231L69.4902 7.40574L69.7158 7.22714L69.9725 7.0505L70.2233 6.90501L70.4844 6.77774L70.7294 6.68037L71.0137 6.58818L71.2615 6.52331L71.5359 6.46731L71.816 6.42385L72.0962 6.39197L72.381 6.36933L72.6736 6.3532L72.9766 6.34372L73.2892 6.33831L73.6154 6.33585L75.1084 6.34089L78.2769 6.34532L73.5662 14.4979L73.9983 15.1167L74.3995 15.6819L75.0069 16.5247L77.2622 19.6034L77.6758 20.173L78.0893 20.7483L78.5027 21.3307L78.877 21.8656L78.8745 10.8257H77.4335L79.229 3.04862H88.9407L89.1255 3.05182L89.2249 3.05489L89.4289 3.06929L89.6282 3.08997L89.8241 3.1173L89.9316 3.13552L90.1187 3.17195L90.3153 3.2186L90.5071 3.27165L90.699 3.33246L90.8005 3.36779L90.8967 3.40311L91.0724 3.47475L91.2555 3.5555L91.3549 3.60301L91.5256 3.69053L91.6234 3.7442L91.79 3.84205L91.9621 3.95074L92.1189 4.05783L92.2635 4.16332L92.4024 4.27089L92.5393 4.38315L92.6701 4.49627L92.7989 4.61481L92.9602 4.77322L93.0776 4.89508L93.1938 5.02346L93.305 5.15505L93.4106 5.28774L93.514 5.42658L93.6106 5.56629L93.7039 5.71006L93.7922 5.85764L93.8747 6.00609L93.9518 6.15712L94.0258 6.31258L94.0943 6.47038L94.157 6.62978L94.2146 6.79214L94.247 6.89184L94.2674 6.80937H101.083L101.285 6.22199H107.373L107.428 6.11921L107.586 5.85321L107.756 5.59608L107.936 5.35113L108.125 5.11874L108.328 4.89644L108.54 4.6894L108.784 4.47682L108.999 4.31213L109.247 4.14178L109.49 3.99702L109.743 3.86347L110.005 3.74333L110.272 3.63809L110.543 3.54676L110.816 3.46847L111.091 3.40262L111.369 3.34809L111.65 3.3039L111.933 3.26882L112.218 3.24236L112.506 3.22377L112.796 3.21195L113.088 3.20629H117.454L117.607 2.42307H125.173L123.155 11.0497ZM117.076 1.76208L117.027 2.00026L116.922 2.54555H113.079L112.776 2.55133L112.471 2.56364L112.165 2.58371L111.863 2.61202L111.559 2.64968L111.256 2.69769L110.952 2.75739L110.651 2.82927L110.349 2.91642L110.048 3.01747L110.041 3.01981L110.034 3.02252L109.75 3.13552L109.742 3.13823L109.735 3.14179L109.456 3.27042L109.449 3.27375L109.442 3.27744L109.171 3.42035L109.164 3.42429L109.156 3.42847L108.896 3.58529L108.888 3.58996L108.881 3.59501L108.616 3.77669L108.61 3.78137L108.603 3.78629L108.372 3.96453L108.365 3.96982L108.098 4.20332L108.091 4.20886L108.085 4.21514L107.859 4.43682L107.854 4.44261L107.848 4.44888L107.632 4.68632L107.626 4.69248L107.621 4.69888L107.421 4.94518L107.416 4.95121L107.411 4.95724L107.222 5.21709L107.034 5.50093L106.998 5.56112H100.822L100.619 6.14826H94.6674L94.6188 6.03612L94.536 5.86109L94.4483 5.69036L94.3554 5.52358L94.2555 5.35667L94.1505 5.19431L94.0408 5.037L93.9254 4.8813L93.8061 4.73125L93.6817 4.58465L93.5514 4.44051L93.4207 4.30487L93.2444 4.1323L93.1011 4.00022L92.9563 3.87504L92.8057 3.75121L92.6517 3.63218L92.4921 3.51586L92.317 3.39622L92.1253 3.27535L91.9423 3.16752L91.8273 3.10474L91.6415 3.00935L91.5248 2.95384L91.323 2.86435L91.1292 2.78607L91.0178 2.74446L90.9009 2.70421L90.6892 2.63737L90.4742 2.5778L90.2543 2.52598L90.046 2.48486L89.921 2.46382L89.7045 2.43403L89.4833 2.41052L89.2569 2.39526L89.1416 2.39107L88.9457 2.3875H78.7107L77.9497 5.68409L75.1107 5.68015L73.6141 5.67498L73.2806 5.67781L72.9601 5.68359L72.6457 5.69295L72.3362 5.71006L72.0326 5.73455L71.729 5.76939L71.4204 5.81702L71.1124 5.88017L71.1048 5.88177L71.0973 5.88386L70.8295 5.95427L70.821 5.95661L70.813 5.95919L70.5078 6.05951L70.4992 6.06209L70.4908 6.06542L70.2334 6.16758L70.2231 6.17177L70.213 6.17669L69.9289 6.31517L69.9192 6.31972L69.9101 6.32514L69.6354 6.48454L69.6253 6.49032L69.6157 6.49685L69.329 6.69527L69.3208 6.70081L69.3132 6.70708L69.0698 6.90058L69.0627 6.90649L69.0556 6.91277L68.8234 7.123L68.8172 7.12854L68.653 7.29471L68.5635 7.1555L68.3308 6.80162L68.098 6.45918L67.8626 6.12647L67.6176 5.79819L67.362 5.47865L67.0932 5.1676L66.8021 4.86062L66.7968 4.85557L66.5041 4.57739L66.4979 4.5716L66.4914 4.56631L66.2022 4.32087L66.1954 4.31508L66.1885 4.31004L65.8473 4.05364L65.8395 4.04761L65.8312 4.04232L65.4833 3.81559L65.4752 3.81017L65.4667 3.80537L65.1021 3.60067L65.0938 3.59624L65.0856 3.59206L64.703 3.40779L64.6942 3.40361L64.6853 3.39991L64.2789 3.23608L64.271 3.233L64.2629 3.2303L63.8582 3.09342L63.851 3.09108L63.8437 3.08899L63.4239 2.97119L62.9756 2.86829L62.514 2.78373L62.0366 2.71393L61.5386 2.65818L61.0202 2.61473L60.4751 2.58272L59.9049 2.56106L59.3033 2.54838L54.2034 2.51576L56.5475 5.68076H46.9741L44.9246 10.4516V2.01368L42.1701 2.03374L41.6733 2.04458L41.2006 2.0639L40.7447 2.0911L40.3096 2.12729L39.8889 2.17333L39.4851 2.22884L39.0911 2.29629L38.711 2.37569L38.3418 2.46837L37.984 2.57435L37.6352 2.69633L37.3003 2.83173L37.2933 2.83481L37.2863 2.83801L36.9725 2.9851L36.965 2.98843L36.9582 2.99212L36.6615 3.15127L36.6544 3.15497L36.6478 3.15915L36.3621 3.33246L36.3554 3.3364L36.349 3.34083L36.0805 3.52423L35.813 3.72659L35.807 3.73103L35.8013 3.73582L35.562 3.93683L35.3245 4.15384L35.1032 4.37343L34.8931 4.59671L34.7447 4.76448L32.4986 2.02956H24.6289L22.5957 11.3436H24.2649V24.0204H33.4325V17.1098L34.9525 18.7979L36.1218 17.3228V24.0204L43.9044 24.0194L45.4142 24.0222L45.927 24.0215L46.1791 24.0188L46.4272 24.0138L46.6699 24.0065L46.9143 23.9953L47.1567 23.9795L47.4048 23.9572L47.6481 23.9288L47.898 23.8919L48.1513 23.844L48.4105 23.7829L48.6634 23.7102L48.8969 23.6309L48.9051 23.6282L48.9132 23.6246L49.1741 23.5178L49.1828 23.5146L49.1913 23.5102L49.4336 23.3924L49.4425 23.3879L49.4515 23.3828L49.6873 23.2471L49.6947 23.2429L49.7017 23.2383L49.9039 23.1061L49.9133 23.0998L49.9223 23.0929L50.1464 22.9204L50.1555 22.9133L50.4008 22.6916L50.4084 22.6846L50.4155 22.6775L50.6075 22.4783L50.6142 22.471L50.6206 22.4637L50.787 22.2663L50.7929 22.2597L50.7981 22.2524L50.9746 22.016L50.9805 22.008L50.9859 21.9996L50.9908 21.992H52.7154L53.0467 24.0204H67.5059L68.867 21.7796L69.0139 21.9953L69.2366 22.314L69.462 22.6256L69.6935 22.9309L69.9354 23.2304L70.1902 23.523L70.4607 23.8073L70.466 23.8131L70.4717 23.8185L70.7491 24.0803L70.7551 24.0858L70.761 24.091L71.0472 24.3336L71.0546 24.3394L71.0621 24.3452L71.3609 24.5677L71.3676 24.5724L71.3744 24.5771L71.6902 24.7857L71.6998 24.7923L71.7102 24.7978L72.0926 25.0093L72.1008 25.0138L72.1091 25.0179L72.4729 25.19L72.4815 25.1939L72.4902 25.1975L72.8692 25.3473L72.8772 25.3506L72.8855 25.3533L73.2924 25.4867L73.6995 25.5959L74.1242 25.6893L74.5636 25.7663L75.0172 25.8281L75.4923 25.8775L75.9859 25.9156L76.506 25.9435L77.0537 25.9621L77.6314 25.9732L82.4786 26L81.405 24.4165H88.7873L88.9182 24.4156L89.1819 24.4063L89.4399 24.3895L89.6999 24.3633L89.8985 24.3366L90.1451 24.2957L90.3344 24.2576L90.5291 24.212L90.7758 24.1444L91.0102 24.0698L91.1928 24.0041L91.4198 23.9135L91.6027 23.8329L91.8268 23.7241L92.047 23.6068L92.2647 23.4801L92.4275 23.3775L92.6404 23.2348L92.814 23.1091L92.9803 22.9827L93.1431 22.8529L93.3014 22.7191L93.3465 22.6786V24.4884H111.438L111.393 21.8849L111.374 21.5559L111.342 21.2352L111.297 20.9167L111.238 20.6091L111.162 20.2919L111.16 20.2845L111.076 20.0012L111.074 19.9939L111.071 19.9864L110.972 19.7039L110.969 19.6957L110.965 19.6876L110.854 19.4225L110.851 19.4155L110.848 19.4086L110.733 19.1711L110.73 19.1631L110.725 19.1555L110.585 18.9027L110.581 18.8955L110.576 18.888L110.423 18.645L110.418 18.6367L110.412 18.6293L110.245 18.3985L110.24 18.3914L110.234 18.3843L110.054 18.1648L110.048 18.1576L110.042 18.1508L109.851 17.9454L109.845 17.9388L109.838 17.9322L109.619 17.724L109.612 17.7173L109.605 17.711L109.385 17.5286L109.379 17.5228L109.372 17.5177L109.154 17.3572L109.147 17.3522L109.14 17.3478L108.917 17.2015L108.91 17.1968L108.902 17.1926L108.673 17.0603L108.666 17.0565L108.659 17.053L108.429 16.9352L108.179 16.823L107.93 16.7256L107.677 16.6399L107.427 16.5662L107.174 16.5028L106.932 16.4533L106.935 16.4494L106.939 16.4421L107.07 16.2017L107.195 15.9452L107.305 15.6924L107.407 15.4354L107.499 15.1803L107.585 14.9217L107.667 14.6605L108.555 11.634H111.448L111.474 24.4884H120.751V11.7104H123.672L125.999 1.76208H117.076Z" fill="white"/>
<path fill-rule="evenodd" clip-rule="evenodd" d="M51.0647 15.9745L52.4644 11.9714L53.535 15.9745H51.0647ZM56.2864 7.57324H48.2013L46.5324 11.4586H47.5972L44.0996 22.127L44.8764 22.1283L45.4136 22.1302L45.9114 22.1293L46.1466 22.1267L46.3735 22.1226L46.5914 22.1153L46.8012 22.1063L47.0045 22.093L47.2006 22.0768L47.3895 22.0547L47.5721 22.0286L47.749 21.9961L47.9206 21.9574L48.0861 21.9111L48.2468 21.8574L48.4026 21.7949L48.5529 21.7236L48.6973 21.6427L48.8363 21.5514L48.969 21.4499L49.0956 21.3383L49.2155 21.2164L49.3288 21.0839L49.4359 20.9418L49.5376 20.7889L49.6333 20.6255L49.7246 20.4522L49.8111 20.268L49.8819 20.1002H54.3024L54.6338 22.1278H59.9169L56.2864 7.57324Z" fill="white"/>
<path fill-rule="evenodd" clip-rule="evenodd" d="M86.9347 11.546H85.3004V9.18847H86.9347C87.1375 9.18847 87.3255 9.24558 87.4918 9.33802L87.5169 9.35033L87.5487 9.36806L87.5562 9.37335C87.882 9.58223 88.1 9.94818 88.1 10.3672C88.1 11.0184 87.5784 11.546 86.9347 11.546ZM86.9347 17.5687H85.3004V14.8391H86.9347C87.5784 14.8391 88.1 15.4502 88.1 16.204C88.1 16.9574 87.5784 17.5687 86.9347 17.5687ZM93.7258 17.5192L93.7237 17.427L93.7206 17.3364L93.7167 17.2464L93.7118 17.1574L93.7061 17.0696L93.6923 16.8977L93.6841 16.8134L93.6748 16.7302L93.6642 16.6477L93.6535 16.5661L93.6414 16.4862L93.629 16.4072L93.6152 16.3291L93.6005 16.252L93.5853 16.1765L93.5692 16.1014L93.5519 16.0276L93.5336 15.9551L93.5149 15.8831L93.4948 15.8129L93.4746 15.7434L93.453 15.675L93.4308 15.6077L93.4071 15.5412L93.383 15.476L93.3582 15.4125L93.3322 15.3491L93.3051 15.2876L93.2776 15.2258L93.2489 15.1653L93.2184 15.1046L93.1869 15.0445L93.1533 14.9836L93.1185 14.9221L93.0818 14.8619L93.0438 14.801L93.0039 14.7394L92.9625 14.6779L92.9196 14.6167L92.8754 14.5547L92.8298 14.4934L92.7822 14.4318L92.7336 14.37L92.6829 14.3081L92.6309 14.2461L92.5771 14.1841L92.5223 14.1219L92.4656 14.0594L92.4074 13.9976L92.3476 13.9348L92.2862 13.8728L92.2231 13.8102L92.1588 13.7476L92.0931 13.6846L92.0258 13.6218L91.9564 13.5589L91.8139 13.433L91.7401 13.3697L91.6648 13.3063L91.5883 13.2433L91.1241 12.8874L91.2693 12.7903L91.3769 12.7142L91.4814 12.6365L91.5833 12.5563L91.6814 12.4741L91.7771 12.3902L91.8703 12.304L91.9603 12.2157L92.0472 12.1255L92.1315 12.0333L92.2125 11.9387L92.2912 11.8423L92.3664 11.7444L92.4389 11.6436L92.5083 11.5412L92.5751 11.4363L92.6387 11.3302L92.6998 11.2217L92.7577 11.1111L92.8133 10.9981L92.8652 10.8834L92.9147 10.7667L92.9612 10.6481L93.0045 10.5269L93.0456 10.4041L93.0838 10.2793L93.1189 10.152L93.1511 10.023L93.1798 9.89156L93.2066 9.75862L93.2298 9.6231L93.2507 9.48536L93.2562 9.44265L93.2617 9.4008L93.2668 9.36055L93.2714 9.32202L93.2756 9.2846L93.2797 9.24952L93.2831 9.2158L93.2865 9.18379L93.2893 9.1529L93.2919 9.12311L93.2934 9.0964L93.295 9.07117L93.2964 9.04692L93.2971 9.02414L93.2981 9.0042V8.70633L93.2964 8.55899L93.2904 8.41448L93.281 8.27157L93.2678 8.13125L93.2507 7.99302L93.2298 7.85689L93.2052 7.7226L93.1765 7.59015L93.1444 7.46054L93.1088 7.3324L93.0686 7.20624L93.0252 7.08241L92.9776 6.96067L92.9266 6.84054L92.8718 6.72274L92.8128 6.60679L92.7504 6.49318L92.6837 6.38166L92.6137 6.27174L92.5398 6.16404L92.4614 6.0583L92.3799 5.95441L92.294 5.85311L92.2047 5.75292L92.1113 5.65568L92.0912 5.6361L92.0762 5.6201L91.9787 5.52434L91.8772 5.43067L91.772 5.33897L91.6635 5.24923L91.5502 5.16147L91.4336 5.07592L91.313 4.99198L91.2452 4.9484L91.1777 4.90581L91.1096 4.86569L91.0404 4.82544L90.9713 4.78716L90.9017 4.75035L90.832 4.7149L90.7614 4.68118L90.6903 4.64868L90.6193 4.61705L90.5472 4.5875L90.4746 4.5587L90.4028 4.53175L90.3294 4.50602L90.2558 4.48152L90.1822 4.45851L90.1072 4.43697L90.0328 4.41678L89.9579 4.39819L89.8821 4.38047L89.8057 4.36471L89.7292 4.34982L89.6528 4.33653L89.5749 4.32496L89.4973 4.31474L89.419 4.30551L89.3406 4.29775L89.2619 4.29147L89.182 4.28594L89.102 4.2831L89.0216 4.28101L88.9413 4.2804H80.1953L78.9688 9.59417H80.0921L80.0952 22.5242H88.82L88.8722 22.5235L88.9236 22.5225L89.0256 22.5198L89.0764 22.5177L89.1261 22.5144L89.1765 22.5114L89.2259 22.5084L89.2745 22.5044L89.3239 22.5002L89.3726 22.4956L89.4205 22.491L89.4688 22.4856L89.516 22.4798L89.5636 22.4738L89.6107 22.467L89.6564 22.4599L89.7028 22.4526L89.749 22.4452L89.7951 22.4373L89.8401 22.4285L89.9301 22.4104L89.9744 22.4002L90.0184 22.3903L90.0615 22.3799L90.1048 22.3688L90.148 22.3576L90.2331 22.3339L90.275 22.3209L90.317 22.3081L90.3581 22.2953L90.4 22.2811L90.4416 22.2672L90.4831 22.2521L90.5249 22.2372L90.5656 22.2214L90.6064 22.2057L90.6475 22.1892L90.6889 22.1722L90.7295 22.1545L90.7704 22.1369L90.8115 22.1183L90.8517 22.0999L90.8916 22.0809L90.9322 22.0612L90.9725 22.0414L91.0126 22.0204L91.0527 21.9995L91.0933 21.978L91.1323 21.9565L91.172 21.9343L91.2122 21.9115L91.2514 21.8885L91.291 21.8647L91.3306 21.8408L91.3697 21.8165L91.4088 21.7914L91.448 21.7655L91.4864 21.74L91.5257 21.7136L91.5645 21.6875L91.6985 21.5916L91.8276 21.4935L91.9525 21.394L92.0736 21.2925L92.19 21.1888L92.3021 21.0838L92.4097 20.9765L92.5136 20.8676L92.6133 20.7574L92.7078 20.6448L92.799 20.5307L92.8856 20.4145L92.9675 20.2962L93.0456 20.1763L93.1196 20.0551L93.1889 19.9315L93.2544 19.8064L93.3155 19.6794L93.3719 19.5501L93.4251 19.4198L93.4735 19.2869L93.5175 19.1522L93.5573 19.0162L93.5931 18.8787L93.6248 18.7384L93.6521 18.5966L93.6753 18.4531L93.6944 18.3076L93.7089 18.1602L93.7192 18.0104L93.7254 17.8594L93.7279 17.706L93.727 17.6121L93.7258 17.5192Z" fill="white"/>
<path fill-rule="evenodd" clip-rule="evenodd" d="M78.3292 23.2235L78.9152 24.0881L77.6465 24.081L77.0933 24.0706L76.5764 24.0525L76.0937 24.0264L75.6427 23.9918L75.2203 23.9467L74.8263 23.8923L74.4571 23.8273L74.1112 23.7507L73.7856 23.6609L73.4802 23.5589L73.1917 23.4428L72.9203 23.3127L72.6626 23.1677L72.4194 23.0076L72.1879 22.8327L71.9672 22.6442L71.7548 22.4404L71.5499 22.2225L71.3481 21.9896L71.1497 21.7427L70.9512 21.4799L70.7502 21.2016L70.5442 20.9063L70.3318 20.5944L69.6305 19.5494L69.3684 19.1623L69.0885 18.7552L68.7891 18.327L68.7781 18.3121L68.7455 18.3657L68.6678 18.494L68.4341 18.8785L68.3564 19.007L68.1232 19.3913L68.0446 19.5201L67.8117 19.9044L67.5778 20.2896L66.8771 21.4437L66.7994 21.5721L66.4615 22.128H61.0427L65.4846 14.5922L57.9609 4.4325L59.2876 4.44124L59.8614 4.45317L60.3994 4.47385L60.9041 4.50377L61.3778 4.54352L61.8214 4.59374L62.2365 4.65504L62.6274 4.72779L62.995 4.81297L63.3409 4.91156L63.6663 5.02357L63.9745 5.15035L64.2655 5.29215L64.5401 5.44897L64.8011 5.6213L65.0492 5.80913L65.2859 6.0126L65.5131 6.23108L65.7327 6.46434L65.9462 6.71359L66.1567 6.97823L66.3648 7.25888L66.5745 7.55565L66.7869 7.86928L67.0046 8.20064L67.2296 8.5496L67.4638 8.91788L67.7091 9.30499L67.9686 9.71254L68.2428 10.14L68.5349 10.5889L68.5465 10.6065L68.6603 10.4298L68.8468 10.1426L69.024 9.87515L69.193 9.62626L69.3558 9.39559L69.5138 9.18154L69.6682 8.98312L69.8217 8.80057L69.9748 8.63231L70.1298 8.47783L70.2877 8.33702L70.4503 8.20987L70.6186 8.09564L70.7927 7.99495L70.9737 7.90719L71.1621 7.83211L71.3574 7.76945L71.5608 7.71739L71.7735 7.67529L71.9957 7.64206L72.2303 7.61645L72.4766 7.59725L72.7379 7.58346L73.0152 7.57497L73.3107 7.56931L73.6246 7.56771H73.9596L74.3171 7.56894L75.1046 7.57239L76.1578 7.57423L72.1242 14.5546L72.1979 14.6633L72.3988 14.9575L72.6006 15.2496L72.8028 15.5397L73.0055 15.8285L73.2087 16.1155L73.4124 16.4011L73.6159 16.6847L73.8203 16.9682L74.0247 17.2509L74.4341 17.8131L75.05 18.6532L75.8732 19.7731L76.2843 20.3358L76.4898 20.6182L76.6951 20.9016L76.9001 21.1862L77.1055 21.4723L77.3101 21.7599L77.5145 22.0487L77.7186 22.3391L77.9225 22.6317L78.1259 22.9265L78.3292 23.2235Z" fill="white"/>
<path fill-rule="evenodd" clip-rule="evenodd" d="M109.527 21.9781L109.536 22.5956H95.2185V12.4123H94.0938L95.2116 8.04136H101.949L102.152 7.45386H106.532L105.296 12.3766H100.141V13.4158H106.082L105.877 14.1178L105.805 14.3482L105.731 14.5678L105.655 14.7778L105.575 14.9775L105.491 15.1678L105.402 15.3499L105.306 15.5227L105.202 15.6866L105.091 15.8411L104.971 15.9868L104.842 16.1232L104.703 16.2495L104.554 16.3662L104.394 16.4724L104.225 16.5683L104.047 16.6552L103.857 16.7321L103.657 16.8012L103.447 16.8613L103.224 16.914L102.989 16.9601L102.742 16.9991L102.48 17.0329L102.203 17.0611L101.911 17.0846L101.602 17.1033L101.276 17.1176L100.932 17.1282H100.141V18.211H105.632L105.831 18.22L106.028 18.2347L106.221 18.2553L106.412 18.282L106.601 18.3147L106.785 18.3539L106.967 18.3998L107.144 18.4529L107.318 18.5131L107.487 18.5809L107.652 18.6561L107.813 18.7401L107.969 18.8318L108.118 18.9322L108.262 19.0405L108.402 19.1584L108.533 19.2854L108.657 19.4209L108.775 19.5654L108.884 19.7183L108.986 19.8806L109.08 20.051L109.164 20.2306L109.242 20.4183L109.309 20.6153L109.368 20.8209L109.418 21.0347L109.459 21.2569L109.491 21.4889L109.513 21.7289L109.527 21.9781Z" fill="white"/>
<path fill-rule="evenodd" clip-rule="evenodd" d="M123.634 3.65491L122.192 9.81788H118.88V22.5958H113.34L113.332 18.622L113.326 15.8096L113.326 15.4084L113.325 15.0067L113.315 9.78427V9.74144H107.438L107.635 8.95108L107.726 8.62071L107.822 8.30511L107.921 8.00452L108.025 7.71846L108.135 7.44619L108.25 7.18758L108.37 6.94238L108.496 6.71036L108.628 6.49052L108.766 6.28373L108.911 6.08876L109.061 5.90658L109.219 5.73611L109.383 5.57756L109.554 5.43097L109.731 5.29581L109.915 5.17211L110.104 5.06022L110.3 4.95867L110.502 4.86808L110.711 4.78721L110.923 4.71655L111.143 4.65525L111.368 4.60245L111.599 4.55814L111.836 4.52133L112.079 4.49167L112.327 4.46914L112.583 4.45302L112.844 4.44256L113.111 4.43751L118.447 4.39271L118.597 3.65491H123.634Z" fill="white"/>
<path fill-rule="evenodd" clip-rule="evenodd" d="M42.2084 3.92559L43.0556 3.91968V22.1279H37.9934V11.9403L34.8635 15.8877L31.5638 12.2224V22.1279H26.1369V9.45145H24.9258L26.1326 3.92226H31.6228L31.8345 4.17952L33.3154 5.9834L33.5076 6.21665L34.1346 6.98067L34.2392 7.1077L34.7897 7.77854L34.9147 7.61101L35.2768 7.1221L35.4495 6.89143L35.6181 6.66974L35.784 6.45643L35.9492 6.25087L36.1143 6.05504L36.281 5.86658L36.4514 5.68651L36.6253 5.51455L36.8054 5.35121L36.9919 5.19649L37.1872 5.05075L37.3911 4.9135L37.6051 4.78586L37.8294 4.66769L38.0663 4.55913L38.3154 4.45942L38.5781 4.36957L38.8552 4.28821L39.1483 4.21595L39.4583 4.15207L39.7862 4.09705L40.1339 4.04941L40.5018 4.01015L40.892 3.97778L41.306 3.9534L41.7439 3.93605L42.2084 3.92559Z" fill="white"/>
</svg>
