<svg width="21" height="25" viewBox="0 0 21 25" fill="none" xmlns="http://www.w3.org/2000/svg">
<path fill-rule="evenodd" clip-rule="evenodd" d="M16.6159 4.18235C16.3064 4.63988 15.9684 5.25655 15.6633 5.91828C15.2246 6.87383 14.9918 7.72696 14.9238 8.17168C14.9098 8.26536 14.87 8.35386 14.8094 8.42648C14.7117 8.54428 14.5678 8.61161 14.4155 8.61161C14.3104 8.61161 14.2095 8.57961 14.1237 8.51905C12.913 7.66271 11.7942 7.47832 10.4867 7.46454L10.3821 7.46392C9.01568 7.46392 8.02321 7.76303 6.84352 8.53C6.76116 8.58367 6.66566 8.61198 6.56724 8.61198C6.43026 8.61198 6.30191 8.55831 6.20507 8.46021C6.12758 8.38192 6.07612 8.27976 6.05981 8.17156C5.9923 7.7277 5.75957 6.87457 5.32599 5.93158L5.31516 5.90573C5.01431 5.25373 4.67647 4.63828 4.36786 4.18235C4.23974 3.99316 4.25107 3.73763 4.39529 3.56075C4.49236 3.44111 4.63645 3.37218 4.79034 3.37218C4.86066 3.37218 4.92878 3.38658 4.99314 3.41452C5.33767 3.56506 5.73621 3.73221 6.14461 3.86786C6.21505 3.72729 6.32235 3.6058 6.45641 3.51902C6.49534 3.49342 6.5367 3.47065 6.57953 3.45145C6.58926 3.19899 6.66639 2.95749 6.80727 2.7454C6.90264 2.60127 7.06165 2.51572 7.23245 2.51572C7.29802 2.51572 7.36238 2.52815 7.42333 2.55314C7.65496 2.6473 7.85946 2.80203 8.01348 2.99749C8.03453 2.99343 8.05521 2.99011 8.07662 2.98703C8.18501 2.42611 8.56275 2.11925 8.95059 1.99985C8.95388 1.98705 8.95777 1.9745 8.96191 1.96169C9.07249 1.63637 9.34269 1.39807 9.67639 1.31769C9.73697 1.04542 9.89804 0.793204 10.1577 0.566966C10.2504 0.48585 10.3691 0.441169 10.4917 0.441169C10.6141 0.441169 10.7331 0.485851 10.8259 0.566475C11.0855 0.793206 11.2468 1.04529 11.3073 1.31769C11.6412 1.39807 11.9113 1.63662 12.0217 1.96194C12.0259 1.9745 12.0298 1.98705 12.0331 1.99985C12.4209 2.11925 12.7993 2.42611 12.9077 2.9874C12.9288 2.99023 12.9495 2.99368 12.9703 2.99786C13.1241 2.80203 13.3289 2.64706 13.5607 2.55314C13.6222 2.52791 13.6863 2.51572 13.7512 2.51572C13.9224 2.51572 14.0818 2.60151 14.1765 2.7454C14.3174 2.95749 14.3944 3.19875 14.4042 3.45108C14.4472 3.47065 14.4885 3.49342 14.5274 3.51865C14.6613 3.6058 14.7682 3.72729 14.8388 3.86786C15.2475 3.73258 15.6459 3.56506 15.9909 3.41452C16.0549 3.38658 16.1229 3.37218 16.1936 3.37218C16.347 3.37218 16.491 3.44099 16.5886 3.56075C16.7326 3.73763 16.7438 3.99316 16.6159 4.18235ZM16.9312 3.27543C16.6656 2.94961 16.196 2.83538 15.8152 3.00254C15.5604 3.1132 15.2875 3.22915 15.0019 3.33525C14.9459 3.27703 14.8848 3.22385 14.8193 3.17683C14.7751 2.93509 14.6814 2.70122 14.5456 2.49541C14.3006 2.12553 13.8173 1.96662 13.3953 2.13636C13.2938 2.17772 13.1966 2.22757 13.1042 2.28542C12.9292 2.00724 12.6771 1.78715 12.3731 1.65003C12.2254 1.34674 11.9728 1.10388 11.6614 0.965778C11.553 0.696458 11.3697 0.448184 11.1153 0.226254C10.7687 -0.0753158 10.2139 -0.0756844 9.868 0.226747C9.61422 0.448185 9.43089 0.696458 9.32225 0.965778C9.01081 1.10388 8.75801 1.34674 8.61069 1.65003C8.30618 1.78752 8.05436 2.00748 7.87978 2.28579C7.78744 2.22769 7.69036 2.17809 7.58927 2.13697C7.17394 1.9681 6.68549 2.1238 6.43841 2.49541C6.30264 2.7006 6.20884 2.93435 6.16468 3.17683C6.09874 3.22422 6.03767 3.27703 5.98183 3.33525C5.68633 3.22533 5.40786 3.10667 5.1693 3.00266C4.78414 2.83403 4.31677 2.94961 4.05297 3.27506C3.78393 3.60531 3.7629 4.08277 4.00173 4.43579C4.29674 4.87239 4.61929 5.45978 4.90822 6.08606L4.92367 6.12114C5.33767 7.02154 5.55811 7.82494 5.62113 8.23902C5.65154 8.44051 5.74728 8.63192 5.89132 8.77803C6.07198 8.96044 6.31201 9.06088 6.56724 9.06088C6.75082 9.06088 6.92953 9.00796 7.08379 8.90752C8.18416 8.19163 9.10862 7.91283 10.3793 7.91283L10.4821 7.91369C11.7073 7.92649 12.7524 8.09709 13.8695 8.88684C14.0302 9.00069 14.2189 9.06064 14.4155 9.06064C14.6988 9.06064 14.9661 8.93521 15.1492 8.71562C15.2627 8.57862 15.3365 8.41368 15.3621 8.24049C15.4258 7.82445 15.6482 7.01624 16.066 6.1076C16.3598 5.46827 16.6852 4.87449 16.982 4.43579C17.2206 4.0829 17.1999 3.60593 16.9312 3.27543Z" fill="white"/>
<path fill-rule="evenodd" clip-rule="evenodd" d="M5.13323 17.7546H8.23435C8.11853 17.515 8.03447 17.2411 7.98435 16.9326C7.93191 16.6216 7.90697 16.1956 7.90697 15.6568V13.3087C8.04566 13.1794 8.18483 13.0805 8.3234 13.016C8.46415 12.9514 8.59846 12.917 8.72632 12.917C8.93533 12.917 9.09178 12.9977 9.20601 13.1474C9.31903 13.2946 9.37937 13.4995 9.37937 13.7735V16.3392C9.37937 16.8342 9.35236 17.2444 9.29969 17.5712C9.24762 17.8957 9.16051 18.1856 9.04251 18.4369H12.1375C12.0167 18.1812 11.9302 17.8863 11.8781 17.5574C11.8255 17.2258 11.7981 16.8205 11.7981 16.3392V13.3087C11.9327 13.1749 12.06 13.0782 12.1827 13.0181C12.3036 12.9606 12.4309 12.9307 12.5583 12.9307C12.8221 12.9307 13.0064 12.9999 13.1136 13.1332C13.2296 13.2648 13.2867 13.4789 13.2867 13.7735V15.6568C13.2867 16.1703 13.2593 16.5871 13.2048 16.9117C13.1521 17.2339 13.0681 17.515 12.9563 17.7546H16.0583C15.9332 17.5034 15.8444 17.2111 15.7922 16.877C15.7398 16.5456 15.7124 16.1381 15.7124 15.6568V12.7558C15.7124 12.1433 15.5281 11.6873 15.1592 11.3901C14.7906 11.091 14.2357 10.9412 13.4914 10.9412C13.0523 10.9412 12.6603 10.9918 12.3149 11.0958C11.9712 11.1992 11.6686 11.3513 11.4115 11.5492C11.1819 11.3513 10.9198 11.1992 10.6332 11.0958C10.3443 10.9918 10.0347 10.9412 9.70687 10.9412C9.502 10.9412 9.31526 10.9576 9.14689 10.9873C8.97645 11.0195 8.80576 11.0656 8.63265 11.1301C8.29591 11.2615 7.98848 11.4526 7.7133 11.7037L7.60429 10.7694L5.07617 11.2689C5.18761 11.4831 5.32715 11.8969 5.38092 12.1662C5.43408 12.4331 5.46024 12.7167 5.46024 13.0181V15.6568C5.46024 16.1681 5.43311 16.5871 5.38092 16.9117C5.32605 17.2339 5.24418 17.515 5.13323 17.7546Z" fill="white"/>
<path fill-rule="evenodd" clip-rule="evenodd" d="M10.2305 1.88698C9.8654 1.70062 9.53608 1.88353 9.4508 2.13476C9.92537 2.25255 10.1909 2.39374 10.2309 2.87588L10.2182 2.88523C10.0053 2.55511 9.69435 2.45639 9.34374 2.46205C8.96101 2.4687 8.59337 2.70934 8.56417 3.25179C8.54227 3.66156 8.80493 4.0328 9.25019 4.01852C9.81199 4.00042 10.027 3.3739 9.72671 3.15862C9.48304 2.98457 9.2941 3.21314 9.30128 3.35014C9.21479 3.41181 9.14921 3.3254 9.1469 3.21831C9.14362 3.04168 9.37111 2.95859 9.48693 2.95921C9.65907 2.9602 9.88717 3.06113 10.0201 3.24072C10.0192 3.25278 10.0188 3.26521 10.0188 3.27715C10.0188 3.43409 10.0927 3.5733 10.207 3.66156C10.1175 3.90971 10.0165 4.17078 9.90956 4.39567C9.26211 4.43358 8.67682 4.53242 8.15018 4.67089C8.06173 4.42201 8.09422 4.24722 8.17719 4.13385C8.28996 3.97913 8.49702 3.93679 8.61855 3.97174C8.57549 3.64026 8.39446 3.49317 8.18935 3.50167C8.05723 3.50696 7.91538 3.57626 7.79324 3.70193C7.74202 3.456 7.5739 3.17499 7.23728 3.03823C7.03703 3.3403 7.07791 3.66168 7.17535 3.89297C7.00418 3.86146 6.84883 3.88694 6.73776 3.95919C6.56489 4.07194 6.49968 4.29756 6.65224 4.59359C6.73216 4.49451 6.92499 4.40871 7.10577 4.47026C7.23801 4.51531 7.36295 4.63963 7.43156 4.89541C6.97085 5.06293 6.56452 5.25939 6.20844 5.46347C6.11768 5.05493 6.28629 4.73798 6.50625 4.51568C5.93921 4.37388 5.36244 4.14247 4.79492 3.89469C5.14602 4.41339 5.49785 5.07057 5.79566 5.71789C6.24737 6.70002 6.49518 7.60227 6.5706 8.09758L6.57219 8.09918C7.89847 7.2362 9.01491 6.93587 10.4965 6.9515C11.9786 6.96701 13.1569 7.20482 14.4216 8.09918L14.423 8.09758C14.4982 7.60227 14.7468 6.70027 15.1984 5.71814C15.4962 5.07081 15.8477 4.41339 16.1988 3.89469C15.6313 4.14247 15.0547 4.37388 14.487 4.51568C14.7074 4.73798 14.8761 5.05456 14.7851 5.46359C14.4287 5.25938 14.0219 5.06293 13.5614 4.89516C13.6298 4.63926 13.7555 4.51531 13.8879 4.47026C14.0684 4.40871 14.2613 4.49451 14.341 4.59359C14.4935 4.29756 14.4287 4.07194 14.2557 3.95919C14.1447 3.88694 13.9888 3.86146 13.818 3.89297C13.9154 3.66168 13.9567 3.3403 13.7564 3.03823C13.4197 3.17499 13.2514 3.456 13.2001 3.70193C13.0777 3.57626 12.936 3.50696 12.8044 3.50167C12.5989 3.49317 12.4179 3.64026 12.375 3.97174C12.4967 3.93679 12.7035 3.97913 12.8163 4.13385C12.8994 4.24759 12.9314 4.42201 12.8432 4.67089C12.316 4.5323 11.7309 4.43358 11.0832 4.39567C10.9757 4.17177 10.8736 3.91131 10.7833 3.66402C10.8989 3.57577 10.9749 3.4352 10.9749 3.27715C10.9749 3.26509 10.9739 3.25278 10.9731 3.24072C11.1058 3.06113 11.3345 2.9602 11.5069 2.95921C11.6221 2.95859 11.8497 3.04168 11.8459 3.21831C11.8441 3.3254 11.7788 3.41181 11.6925 3.35014C11.6997 3.21314 11.5104 2.98457 11.267 3.15862C10.9664 3.3739 11.1818 4.00042 11.7436 4.01852C12.1884 4.0328 12.4511 3.66156 12.4295 3.25179C12.4005 2.70934 12.0322 2.4687 11.6498 2.46205C11.3051 2.45639 10.9852 2.56532 10.7719 2.88302C10.7647 2.8776 10.7573 2.8728 10.7501 2.86788C10.7972 2.40272 11.0757 2.25083 11.5425 2.13476C11.4575 1.88353 11.1283 1.70062 10.7629 1.88698C10.9175 1.48066 10.782 1.21269 10.4965 0.963928C10.2115 1.21269 10.0761 1.48066 10.2305 1.88698ZM10.299 5.76196L9.56467 5.56169L10.299 5.36167L10.4972 4.61846L10.6947 5.36167L11.4293 5.56169L10.6947 5.76196L10.4972 6.50493L10.299 5.76196ZM13.2753 5.01173L13.2113 5.77858L13.8348 6.21924L13.0767 6.15462L12.641 6.78545L12.7052 6.01872L12.0817 5.57757L12.8394 5.64244L13.2753 5.01173ZM7.78229 5.77882L7.71806 5.01173L8.15395 5.64244L8.91198 5.57745L8.2885 6.01836L8.35237 6.78545L7.91709 6.15511L7.15881 6.21948L7.78229 5.77882Z" fill="white"/>
<path d="M1.90915 12.6451C1.93263 12.6637 1.96203 12.6716 1.99111 12.6664C2.0008 12.6758 2.0123 12.6835 2.02544 12.6886C2.03775 12.6935 2.0509 12.6958 2.06354 12.6958C2.09492 12.6958 2.12564 12.6817 2.146 12.6558C2.27264 12.4955 2.41554 12.4561 2.58078 12.4103C2.71875 12.3725 2.87497 12.3293 3.02691 12.2119C3.34703 11.9754 3.3582 11.597 3.3421 11.2294C3.34013 11.1863 3.31254 11.1482 3.2723 11.1336C3.2319 11.1188 3.18705 11.1301 3.15814 11.1628C3.02904 11.3076 2.89549 11.3588 2.7411 11.4182C2.62644 11.462 2.49668 11.5118 2.35986 11.6056L2.35789 11.6067C2.30927 11.6416 2.2664 11.6804 2.22927 11.7223C2.26706 11.5914 2.29548 11.4508 2.29285 11.2867C2.28118 10.8001 2.00195 10.5568 1.69216 10.3306C1.65735 10.3048 1.61086 10.3037 1.57456 10.3266C1.53826 10.3495 1.51921 10.3925 1.52643 10.4353C1.57143 10.7002 1.52611 10.9037 1.47387 11.1391C1.43921 11.2945 1.4034 11.4552 1.38977 11.6488C1.35528 12.1366 1.6189 12.4159 1.90915 12.6451Z" fill="white"/>
<path d="M0.519826 13.5729C0.50406 13.767 0.487807 13.9676 0.505374 14.1923C0.550374 14.7369 0.925049 14.9334 1.32304 15.0641C1.34669 15.0721 1.37183 15.0707 1.39416 15.0618C1.40155 15.0651 1.4091 15.0677 1.41716 15.0691C1.42373 15.0704 1.43047 15.0711 1.43047 15.0711C1.47564 15.0711 1.5121 15.0493 1.53049 15.0136C1.65451 14.7731 1.81745 14.6692 2.00635 14.549C2.16387 14.4488 2.32664 14.3449 2.47578 14.1559C2.78146 13.7761 2.72447 13.36 2.63264 12.9316C2.62329 12.8876 2.58813 12.8548 2.5446 12.8485C2.50058 12.8425 2.45771 12.8637 2.43685 12.9031C2.3112 13.1373 2.16157 13.2552 1.98877 13.3916C1.86409 13.4898 1.73532 13.5915 1.60178 13.7454C1.60112 13.7461 1.60063 13.7465 1.6003 13.7472C1.55234 13.8048 1.51177 13.8639 1.47777 13.9242C1.49813 13.7612 1.50586 13.5917 1.47399 13.4099C1.37905 12.8581 0.993212 12.7094 0.590459 12.6307C0.553172 12.6242 0.51507 12.6373 0.490434 12.6658C0.465787 12.6949 0.458232 12.735 0.470884 12.7711C0.563197 13.0367 0.54316 13.2853 0.519826 13.5729Z" fill="white"/>
<path d="M0.681429 17.1066C0.863924 17.3671 1.12475 17.4463 1.40497 17.4463C1.59354 17.4463 1.79098 17.4103 1.97954 17.3695C2.01157 17.3625 2.03802 17.3412 2.05215 17.3122C2.06069 17.3122 2.06923 17.3112 2.07809 17.3089C2.12097 17.2978 2.15234 17.2608 2.15694 17.2164C2.18306 16.9625 2.29902 16.7963 2.43322 16.6042C2.54901 16.4384 2.66876 16.2669 2.73643 16.0264C2.87276 15.5433 2.64905 15.2121 2.38722 14.8879C2.36012 14.8544 2.31544 14.8403 2.27437 14.8536C2.23348 14.8664 2.20408 14.9029 2.20047 14.9461C2.17615 15.2232 2.0753 15.4102 1.95852 15.6262C1.88082 15.7702 1.80017 15.9193 1.73414 16.1091C1.68717 16.2455 1.66812 16.3734 1.67057 16.493C1.61423 16.2765 1.55067 16.0552 1.38789 15.8582C1.24466 15.6858 1.06234 15.5986 0.846345 15.5986C0.590601 15.5986 0.316791 15.7173 0.0589054 15.8457C0.0244161 15.8627 0.00173974 15.8978 9.73868e-05 15.9366C-0.00154496 15.9755 0.0176765 16.0125 0.0508519 16.0327C0.259138 16.1602 0.337971 16.3628 0.42914 16.5969C0.491063 16.7562 0.561367 16.9368 0.681429 17.1066Z" fill="white"/>
<path d="M2.97384 19.3517C2.99782 19.3395 3.01571 19.3191 3.02508 19.2952C3.03953 19.3058 3.05416 19.3162 3.06878 19.3267C3.10408 19.3523 3.15107 19.3527 3.18737 19.3287C3.22367 19.3048 3.24157 19.2607 3.23303 19.218C3.17899 18.9537 3.25503 18.7454 3.34292 18.5039C3.41995 18.293 3.49928 18.075 3.49617 17.8014C3.48631 17.2455 3.11378 16.9835 2.73303 16.7628C2.69706 16.7416 2.65206 16.744 2.61855 16.7689C2.58488 16.7938 2.56878 16.836 2.57716 16.8773C2.63794 17.1691 2.58423 17.396 2.52229 17.6592C2.48107 17.8349 2.4382 18.0162 2.42522 18.2333C2.40403 18.5943 2.54381 18.8517 2.74552 19.0579C2.59424 18.9588 2.49388 18.8144 2.38268 18.654C2.24454 18.4549 2.10147 18.2487 1.83802 18.1103C1.72648 18.0579 1.60969 18.0314 1.49062 18.0314C1.0849 18.0314 0.684941 18.3441 0.34214 18.6369C0.309451 18.6647 0.296641 18.7098 0.30978 18.751C0.322761 18.7923 0.359063 18.8215 0.401764 18.8249C0.700866 18.8492 0.851001 18.9955 1.04121 19.1806C1.15997 19.2963 1.29465 19.4276 1.47714 19.5318C1.634 19.6286 1.79924 19.6678 1.96777 19.6678C2.30548 19.6678 2.6555 19.5115 2.97384 19.3517Z" fill="white"/>
<path d="M18.2302 11.4182C18.0758 11.359 17.9426 11.3078 17.8135 11.1628C17.7847 11.1307 17.7396 11.1192 17.6995 11.1339C17.659 11.1483 17.6315 11.1863 17.6297 11.2298C17.613 11.6122 17.6244 11.9749 17.9433 12.2112C18.097 12.3296 18.2532 12.3725 18.3908 12.4106C18.5559 12.4561 18.6989 12.4955 18.8258 12.6559C18.8461 12.6817 18.877 12.6959 18.9081 12.6959C18.9211 12.6959 18.9339 12.6935 18.9464 12.6886C18.9595 12.6836 18.971 12.6758 18.9808 12.6665C19.0093 12.6716 19.0391 12.6638 19.0627 12.6452C19.3526 12.4163 19.6162 12.1368 19.582 11.649C19.5682 11.4558 19.5325 11.2952 19.4981 11.14C19.4455 10.9043 19.4 10.7006 19.4451 10.4353C19.4523 10.3926 19.4334 10.3495 19.3969 10.3266C19.3606 10.3038 19.3141 10.3051 19.2792 10.3306C18.9691 10.5568 18.6901 10.8002 18.6787 11.2867C18.6759 11.4505 18.7044 11.5914 18.7421 11.7226C18.7044 11.6801 18.661 11.6409 18.6115 11.6057C18.4746 11.5119 18.3448 11.4623 18.2302 11.4182Z" fill="white"/>
<path d="M17.7162 10.4817C17.9306 10.6273 18.1157 10.7528 18.2162 11.0556C18.2307 11.0991 18.2711 11.1284 18.3162 11.1284H18.3175C18.3634 11.1277 18.4036 11.0973 18.4171 11.0531C18.5767 10.5276 18.682 9.97767 18.3747 9.5135C18.2448 9.31852 18.1022 9.18879 17.9762 9.07444C17.8008 8.91467 17.6488 8.77656 17.5632 8.49703C17.5503 8.45456 17.5126 8.4244 17.4685 8.42194C17.4246 8.41886 17.3837 8.44471 17.3658 8.48533C17.1181 9.05253 16.9358 9.55818 17.2143 10.0049C17.3554 10.2369 17.539 10.3615 17.7162 10.4817Z" fill="white"/>
<path d="M2.68199 11.1284H2.6833C2.72864 11.1284 2.76888 11.0991 2.78334 11.0555C2.88386 10.7527 3.06914 10.6273 3.28366 10.4821C3.46121 10.3616 3.64502 10.2367 3.78546 10.0055C4.0637 9.55939 3.88154 9.05312 3.63418 8.48543C3.6166 8.44506 3.57883 8.41945 3.53152 8.42192C3.4875 8.42438 3.44972 8.45429 3.43691 8.49688C3.35101 8.77678 3.19923 8.91464 3.02347 9.07441C2.89766 9.18889 2.75476 9.31875 2.62483 9.51348C2.31768 9.9774 2.4228 10.5279 2.58262 11.0531C2.59608 11.0973 2.63616 11.1277 2.68199 11.1284Z" fill="white"/>
<path d="M19.5152 13.9255C19.4805 13.8642 19.4396 13.8042 19.391 13.7454C19.2573 13.5914 19.1284 13.4896 19.0036 13.3912C18.8308 13.2549 18.6812 13.1371 18.5557 12.9031C18.5348 12.8637 18.491 12.8423 18.4482 12.8485C18.4042 12.8547 18.3692 12.888 18.3599 12.9315C18.2683 13.36 18.2117 13.7761 18.5165 14.1553C18.6662 14.345 18.8287 14.4485 18.9862 14.5489C19.1749 14.6692 19.3381 14.7731 19.4623 15.0136C19.4806 15.0493 19.517 15.0711 19.5557 15.0711C19.5621 15.0711 19.5687 15.0703 19.5754 15.0691C19.5833 15.0676 19.5912 15.065 19.5984 15.0617C19.6208 15.0707 19.6461 15.0719 19.6699 15.0641C20.0675 14.9333 20.4421 14.7371 20.4871 14.1921C20.5045 13.9677 20.4882 13.7674 20.4724 13.5736C20.4493 13.2855 20.4291 13.037 20.5216 12.771C20.5342 12.735 20.5265 12.6948 20.5019 12.6658C20.4774 12.6369 20.4394 12.6237 20.4019 12.6306C19.9995 12.7094 19.614 12.8579 19.5186 13.4096C19.4868 13.5922 19.4945 13.762 19.5152 13.9255Z" fill="white"/>
<path d="M15.7142 21.7518C15.3324 21.7524 15.0446 21.8927 14.7664 22.0285C14.5402 22.1388 14.3235 22.2443 14.0688 22.2635C14.4445 22.1615 14.7847 21.9801 14.9787 21.5807C15.0858 21.3674 15.1425 21.1728 15.1973 20.9846C15.2809 20.6975 15.3532 20.45 15.5883 20.198C15.6176 20.1664 15.6254 20.1204 15.608 20.081C15.5906 20.0416 15.5534 20.0219 15.509 20.0178C14.9892 20.0316 14.4553 20.0899 14.1349 20.628L14.134 20.629C13.9783 20.8982 13.9408 21.153 13.9046 21.3996C13.8632 21.6803 13.8277 21.9228 13.6265 22.1628C13.598 22.1968 13.5935 22.2455 13.6153 22.2845C13.634 22.3176 13.6682 22.3376 13.7052 22.3384C13.6986 22.3699 13.7064 22.4035 13.7277 22.4289C14.0959 22.8691 14.5379 23.3315 15.1553 23.3315C15.2002 23.3315 15.2456 23.3291 15.2923 23.324C15.5575 23.3078 15.7762 23.2504 15.9879 23.1949C16.3345 23.1042 16.6338 23.0261 17.0464 23.1599C17.0873 23.1737 17.1323 23.1602 17.1599 23.1266C17.1876 23.0931 17.1921 23.0457 17.1713 23.0073C16.8406 22.3921 16.456 21.788 15.7142 21.7518Z" fill="white"/>
<path d="M17.9569 20.211C17.8927 20.211 17.8269 20.2167 17.7614 20.228C17.7614 20.228 17.7574 20.2286 17.7556 20.2291C17.4118 20.3087 17.1843 20.4978 16.9647 20.6805C16.7912 20.8247 16.6252 20.9631 16.4084 21.0353C16.7326 20.8565 17.0011 20.6058 17.0849 20.1792C17.132 19.9409 17.1338 19.7335 17.1355 19.5329C17.1384 19.2319 17.1406 18.9721 17.2954 18.6715C17.3146 18.6342 17.3101 18.5887 17.2838 18.5556C17.2575 18.5228 17.2145 18.5086 17.1741 18.5194C16.6782 18.6544 16.1799 18.837 16.0143 19.4394C15.9346 19.7375 15.964 19.9953 15.9925 20.2439C16.0253 20.5298 16.0535 20.7768 15.9172 21.0558C15.8978 21.0953 15.9046 21.143 15.9343 21.1755C15.964 21.2078 16.0103 21.2182 16.0511 21.202C16.0533 21.2011 16.0553 21.2004 16.0576 21.1995C16.0595 21.2294 16.0742 21.258 16.0992 21.277C16.4797 21.5663 16.9141 21.8603 17.3927 21.8603C17.5108 21.8603 17.6314 21.8426 17.7544 21.8023C17.9944 21.7367 18.1797 21.6411 18.3589 21.549C18.6461 21.4009 18.8942 21.2731 19.292 21.3282C19.3355 21.3331 19.3781 21.3125 19.399 21.2733C19.4199 21.2342 19.4148 21.1862 19.3859 21.1526C18.9785 20.6762 18.5324 20.211 17.9569 20.211Z" fill="white"/>
<path d="M19.4781 18.0309C19.3589 18.0309 19.242 18.0575 19.1301 18.1098C19.1287 18.1105 19.1271 18.1112 19.1258 18.112C18.8669 18.2483 18.7241 18.4542 18.5855 18.6536C18.4748 18.8136 18.3745 18.958 18.2234 19.0571C18.4248 18.8512 18.5644 18.5943 18.5441 18.233C18.5309 18.0158 18.4882 17.8343 18.4466 17.6589C18.3846 17.3959 18.3308 17.1685 18.3916 16.8767C18.4003 16.8356 18.3842 16.7932 18.3504 16.7685C18.3169 16.7434 18.2717 16.7409 18.2359 16.7622C17.8549 16.983 17.4825 17.245 17.4728 17.8008C17.4695 18.0739 17.549 18.2928 17.6258 18.5037C17.7139 18.7449 17.7899 18.9536 17.736 19.2175C17.7271 19.2602 17.7453 19.3043 17.7815 19.3281C17.8175 19.3523 17.8647 19.3518 17.9004 19.3262C17.9146 19.3158 17.9292 19.3052 17.9437 19.2947C17.9531 19.3189 17.9709 19.3391 17.9951 19.3512C18.3138 19.5113 18.6646 19.6677 19.0018 19.6677C19.169 19.6677 19.3332 19.6291 19.4883 19.5332C19.6736 19.4271 19.8083 19.2959 19.927 19.1804C20.1174 18.9949 20.2675 18.8487 20.5667 18.8243C20.6094 18.821 20.6455 18.7917 20.6587 18.7505C20.6718 18.7095 20.659 18.6644 20.6263 18.6365C20.2835 18.3434 19.8841 18.0309 19.4781 18.0309Z" fill="white"/>
<path d="M20.92 15.8454C20.6623 15.7173 20.3883 15.5986 20.1323 15.5986C19.9165 15.5986 19.7341 15.6858 19.591 15.8584C19.4283 16.0556 19.3643 16.2775 19.3081 16.4942C19.3105 16.3742 19.2918 16.2465 19.2445 16.1091C19.1785 15.9193 19.0979 15.7701 19.0202 15.6258C18.9035 15.4096 18.8025 15.223 18.7784 14.9461C18.7747 14.9027 18.7452 14.8661 18.7043 14.8536C18.6635 14.8403 18.6187 14.8544 18.5914 14.8879C18.3296 15.2119 18.1063 15.5429 18.2423 16.026C18.31 16.2665 18.4296 16.438 18.5453 16.6039C18.6795 16.7963 18.7956 16.9625 18.8216 17.2164C18.8262 17.2608 18.8577 17.2978 18.9006 17.3089C18.9094 17.3112 18.9167 17.3089 18.9271 17.3122C18.941 17.3411 18.9676 17.3624 18.9996 17.3695C19.188 17.4103 19.3855 17.4463 19.5744 17.4463C19.8546 17.4463 20.1153 17.3671 20.2974 17.107C20.4175 16.9369 20.4878 16.7563 20.5497 16.5969C20.6411 16.3628 20.7199 16.1605 20.9284 16.0325C20.9615 16.0125 20.9808 15.9757 20.979 15.9366C20.9776 15.8978 20.9547 15.8627 20.92 15.8454Z" fill="white"/>
<path d="M9.20322 22.2764C9.11331 22.0437 9.02037 21.803 8.80552 21.5662C8.55552 21.3 8.25917 21.1759 7.8734 21.1759C7.68313 21.1759 7.48666 21.2067 7.33641 21.2335C7.2942 21.241 7.26074 21.2738 7.25186 21.3163C7.24262 21.3588 7.26026 21.4024 7.29566 21.427C7.58848 21.6283 7.71646 21.8579 7.86476 22.1241C7.95795 22.2913 8.05455 22.4645 8.19919 22.645C8.33666 22.8204 8.49737 22.9349 8.66939 23.0098C8.64567 23.0037 8.62219 22.9976 8.59871 22.9917L8.55382 22.9799C8.3408 22.9249 8.12073 22.8678 7.87547 22.8678C7.76951 22.8678 7.66805 22.8784 7.56537 22.9003L7.56062 22.9012C6.85745 23.0848 6.62436 23.7184 6.42984 24.4071C6.41804 24.449 6.43251 24.494 6.46645 24.5206C6.48568 24.5358 6.50843 24.5433 6.53142 24.5433C6.54967 24.5433 6.56804 24.5385 6.58446 24.529C6.86329 24.3654 7.10235 24.3372 7.3768 24.3419C7.45357 24.3435 7.53094 24.3483 7.60977 24.3531C7.81537 24.3656 8.0279 24.3786 8.27328 24.3459C8.88569 24.2845 9.25784 23.8381 9.62791 23.1868C9.6402 23.1652 9.64434 23.1407 9.64069 23.1174C9.65322 23.1053 9.66307 23.0906 9.66879 23.0735C9.68351 23.0306 9.66964 22.9827 9.63436 22.9549C9.39105 22.762 9.30407 22.537 9.20322 22.2764Z" fill="white"/>
<path d="M7.23941 22.4293C7.2607 22.4039 7.26873 22.3703 7.26228 22.339C7.29902 22.3385 7.33369 22.3183 7.35267 22.2849C7.37445 22.2459 7.37007 22.1973 7.34148 22.1631C7.14026 21.9232 7.10437 21.6807 7.06325 21.3997C7.02688 21.1534 6.98929 20.8986 6.83296 20.6283C6.51228 20.0904 5.97809 20.032 5.45862 20.0182C5.41288 20.0134 5.37674 20.0421 5.35935 20.0815C5.34219 20.1208 5.34986 20.1669 5.37906 20.1984C5.61458 20.4503 5.68697 20.6982 5.77054 20.9851C5.82517 21.1729 5.8821 21.3672 5.98879 21.5806C6.1776 21.9687 6.48916 22.154 6.89792 22.2638C6.64354 22.2447 6.42736 22.1392 6.20157 22.029C5.9231 21.893 5.63514 21.7528 5.24791 21.7523C4.51151 21.7885 4.12698 22.3924 3.796 23.0077C3.77548 23.0461 3.77991 23.0932 3.80734 23.127C3.8351 23.1606 3.8801 23.1744 3.92085 23.1602C4.33345 23.0272 4.63294 23.1046 4.97966 23.1957C5.19134 23.2508 5.4102 23.3083 5.67054 23.324C5.7175 23.3292 5.76373 23.3315 5.80899 23.3315C6.43028 23.3315 6.87165 22.8694 7.23941 22.4293Z" fill="white"/>
<path d="M4.9085 21.2001C4.91056 21.2011 4.91288 21.2019 4.91507 21.2028C4.9557 21.2193 5.00205 21.209 5.03161 21.1763C5.06154 21.1438 5.06823 21.0961 5.04889 21.0566C4.91251 20.7775 4.94086 20.5305 4.97346 20.2446C5.00193 19.996 5.03161 19.7388 4.95181 19.4402C4.78623 18.8379 4.28773 18.6552 3.79135 18.5203C3.75143 18.5095 3.7079 18.5236 3.68178 18.5564C3.65566 18.5896 3.65107 18.6349 3.67029 18.6727C3.82518 18.9733 3.82765 19.2334 3.83043 19.5345C3.8324 19.735 3.83438 19.9422 3.88119 20.1801C3.96513 20.6064 4.23352 20.8574 4.55744 21.0363C4.34094 20.9638 4.17472 20.8257 4.00143 20.6816C3.78149 20.4986 3.55432 20.3097 3.20463 20.2288C3.13925 20.2175 3.07355 20.2118 3.00932 20.2118C2.43295 20.2118 1.98733 20.677 1.58031 21.1534C1.55173 21.1871 1.54647 21.2351 1.5675 21.2741C1.58835 21.3133 1.63139 21.3339 1.67459 21.329C2.07159 21.2741 2.32011 21.4016 2.60739 21.5497C2.78676 21.642 2.97187 21.7374 3.20725 21.8016C3.33176 21.8423 3.45363 21.8602 3.57256 21.8602C4.05285 21.8602 4.48663 21.5668 4.86653 21.2778C4.89134 21.2589 4.90618 21.2304 4.9085 21.2001Z" fill="white"/>
<path d="M13.4039 22.9003C13.3014 22.8784 13.1999 22.8678 13.0938 22.8678C12.8492 22.8678 12.6292 22.9248 12.4166 22.9798L12.3709 22.9917C12.3477 22.9974 12.3246 23.0035 12.3014 23.0093C12.473 22.9347 12.6329 22.8205 12.7697 22.6462C12.9154 22.4642 13.0118 22.2911 13.1055 22.1233C13.2536 21.8576 13.3812 21.6279 13.6741 21.427C13.7095 21.4026 13.727 21.3588 13.7178 21.3163C13.7089 21.2738 13.6755 21.241 13.6332 21.2335C13.4828 21.2067 13.2859 21.176 13.0961 21.176C12.7102 21.176 12.4141 21.3 12.1641 21.5662L12.1629 21.5678C11.949 21.803 11.8561 22.0441 11.7661 22.2769C11.6656 22.537 11.5788 22.762 11.3353 22.9549C11.3001 22.9829 11.2861 23.0304 11.3005 23.0733C11.3066 23.0904 11.3162 23.1053 11.3285 23.1171C11.3251 23.1407 11.3292 23.1652 11.3415 23.1868C11.7116 23.8381 12.0832 24.2845 12.6933 24.3457C12.9419 24.3784 13.1544 24.3654 13.36 24.3531C13.4391 24.3483 13.5161 24.3435 13.5931 24.3419C13.8661 24.3365 14.1061 24.3652 14.3853 24.529C14.4016 24.5385 14.4201 24.5433 14.4382 24.5433C14.4612 24.5433 14.484 24.5358 14.503 24.5206C14.5369 24.4939 14.5513 24.449 14.5393 24.4071C14.3448 23.7183 14.1115 23.0847 13.4039 22.9003Z" fill="white"/>
</svg>
