<svg width="104" height="25" viewBox="0 0 104 25" fill="none" xmlns="http://www.w3.org/2000/svg">
<path d="M55.6259 9.72432L55.6279 18.0499L55.6071 18.0208L55.1919 17.4487L52.9375 14.3713L52.3329 13.5323L51.9345 12.9712L51.7461 12.7019L54.3794 8.14508L54.0148 9.72432H55.6259ZM35.7536 6.35216L40.6394 12.9498L38.3629 16.8123L35.7536 6.35216ZM100.559 9.2876H97.5018V22.0654H89.5296V9.21141H84.3055L83.9431 10.6143H85.0586L84.4458 12.7055L84.3684 12.9557L84.2869 13.2002L84.2008 13.4382L84.1073 13.6754L84.0065 13.9054L83.8947 14.1352L83.7721 14.3601L83.6176 14.6078L83.4712 14.8137L83.2836 15.0439L83.1172 15.2197L83.2877 15.2273L83.5197 15.2443L83.7503 15.2679L83.9797 15.299L84.209 15.3388L84.4357 15.3857L84.6638 15.4424L84.8886 15.5087L85.1139 15.5856L85.3339 15.672L85.5548 15.7707L85.7695 15.8806L85.9825 16.0042L86.1892 16.1399L86.3902 16.2893L86.5939 16.4589L86.7946 16.6508L86.9698 16.8406L87.1349 17.0431L87.2885 17.2568L87.4307 17.4815L87.5596 17.7162L87.6647 17.9353L87.7681 18.1832L87.8605 18.446L87.9386 18.7116L88.0048 18.9889L88.0579 19.2661L88.0992 19.5554L88.1277 19.847L88.1446 20.1484L88.1777 22.0654H71.404V19.1872L71.3897 19.209L71.2842 19.3611L71.1766 19.5071L71.0599 19.6548L70.9429 19.7945L70.8182 19.9336L70.6918 20.0678L70.5593 20.1995L70.4224 20.3293L70.2796 20.456L70.1352 20.5785L69.9852 20.6981L69.8316 20.8149L69.6734 20.929L69.4781 21.0602L69.3324 21.1521L69.1356 21.2667L68.9362 21.3724L68.734 21.4704L68.5727 21.5415L68.3667 21.6238L68.2058 21.6816L67.9949 21.7489L67.7736 21.8094L67.6002 21.8496L67.4319 21.8835L67.2055 21.9214L67.0275 21.9455L66.7901 21.9688L66.5526 21.9848L66.3083 21.9927L66.1875 21.9941H57.5695L58.6383 23.5705L55.0432 23.5508L54.4748 23.5396L53.9385 23.5211L53.4319 23.4943L52.9543 23.4574L52.4972 23.4093L52.0661 23.3506L51.652 23.2781L51.2549 23.1912L50.8724 23.0883L50.4916 22.963L50.1334 22.8201L49.79 22.6577L49.4403 22.4622L49.1357 22.2617L48.8537 22.051L48.5849 21.8224L48.3226 21.5733L48.0737 21.312L47.8365 21.0396L47.6092 20.7578L47.3881 20.4665L47.1706 20.1655L46.9534 19.8547L46.7327 19.5305L46.2433 18.8017L44.5449 21.5978H31.0045L30.6731 19.5695H28.0377L27.9893 19.6527L27.8444 19.8744L27.6816 20.0914L27.5289 20.2715L27.3528 20.4542L27.1445 20.6406L26.9417 20.7966L26.7508 20.9218L26.5343 21.0457L26.313 21.1528L26.0739 21.2492L25.8727 21.3178L25.6497 21.3821L25.4208 21.4348L25.1939 21.478L24.9667 21.5117L24.7417 21.5382L24.5111 21.558L24.2819 21.5729L24.0487 21.5842L23.8147 21.5913L23.5731 21.5961L23.3274 21.5984L22.8185 21.5999L21.3093 21.5966L21.2515 21.5973L14.1794 21.5978V13.6819L12.3254 16.0196L10.184 13.6413V21.5978H2.32252V8.92091H0.813388L2.55744 0.92797H9.5963L12.1492 4.03647L12.2303 3.93246L12.4076 3.71213L12.5901 3.49451L12.778 3.28231L12.9737 3.07416L13.1776 2.87156L13.3944 2.67338L13.6224 2.48235L13.8645 2.29931L14.1181 2.12711L14.3876 1.96377L14.6679 1.81409L14.9641 1.67586L15.2689 1.55253L15.5878 1.44175L15.9181 1.3434L16.2614 1.25773L16.617 1.18314L16.9885 1.11987L17.3731 1.06669L17.7757 1.023L18.1954 0.987915L18.6377 0.961698L19.0986 0.943358L19.5842 0.932156L21.6758 0.917016V15.9257L23.3143 10.9281H22.0795L24.8065 4.5793H34.638L38.1157 18.5214L41.4248 12.908L32.9196 1.42242L36.6988 1.44704L37.2906 1.45984L37.8486 1.48077L38.3795 1.51191L38.8816 1.55388L39.3592 1.6073L39.815 1.6734L40.2509 1.75403L40.6699 1.84991L41.0727 1.96352L41.4604 2.09486L41.847 2.25143L42.209 2.42609L42.553 2.62058L42.8814 2.83574L43.2031 3.0781L43.4761 3.31025L43.754 3.57464L44.0171 3.85295L44.268 4.1427L44.5081 4.44341L44.741 4.75606L44.9684 5.0772L45.1943 5.41015L45.4219 5.75677L45.6529 6.11484L45.9813 6.63182L46.1158 6.45875L46.2968 6.24199L46.4803 6.03816L46.6769 5.84023L46.8945 5.64365L47.1201 5.46505L47.3768 5.28842L47.6276 5.14293L47.8887 5.01565L48.1337 4.91829L48.418 4.82609L48.6658 4.76123L48.9402 4.70522L49.2203 4.66177L49.5005 4.62989L49.7853 4.60724L50.0779 4.59112L50.3809 4.58164L50.6935 4.57622L51.0197 4.57376L52.5127 4.57881L55.6812 4.58324L50.9705 12.7358L51.4026 13.3546L51.8038 13.9198L52.4112 14.7626L54.6665 17.8413L55.0801 18.4109L55.4936 18.9862L55.907 19.5687L56.2813 20.1035L56.2788 9.06358H54.8378L56.6333 1.28653H66.345L66.5298 1.28973L66.6292 1.29281L66.8332 1.30721L67.0325 1.32789L67.2284 1.35522L67.3359 1.37343L67.523 1.40987L67.7196 1.45652L67.9114 1.50957L68.1033 1.57038L68.2048 1.6057L68.301 1.64103L68.4767 1.71267L68.6598 1.79341L68.7592 1.84093L68.9298 1.92844L69.0277 1.98211L69.1943 2.07997L69.3664 2.18865L69.5232 2.29574L69.6678 2.40123L69.8067 2.50881L69.9436 2.62107L70.0744 2.73419L70.2032 2.85272L70.3645 3.01114L70.4819 3.133L70.5981 3.26138L70.7093 3.39296L70.8149 3.52565L70.9183 3.6645L71.0149 3.8042L71.1082 3.94797L71.1965 4.09556L71.279 4.244L71.3561 4.39503L71.4301 4.5505L71.4986 4.7083L71.5613 4.8677L71.6189 5.03005L71.6513 5.12976L71.6717 5.04728H78.4876L78.6897 4.4599H84.7772L84.8323 4.35712L84.9906 4.09113L85.1605 3.83399L85.3407 3.58905L85.5295 3.35665L85.732 3.13435L85.9442 2.92731L86.1887 2.71474L86.4031 2.55005L86.6515 2.37969L86.894 2.23494L87.1475 2.10138L87.4098 1.98125L87.6765 1.87601L87.9472 1.78468L88.2206 1.70639L88.4956 1.64054L88.7738 1.58601L89.0542 1.54182L89.3372 1.50674L89.6219 1.48027L89.9098 1.46169L90.2003 1.44987L90.4924 1.44421H94.8583L95.0116 0.660989H102.577L100.559 9.2876ZM94.4799 0L94.4313 0.238177L94.3266 0.783464H90.4833L90.1801 0.789249L89.8751 0.801558L89.5698 0.821622L89.2669 0.849931L88.9631 0.887599L88.6599 0.935603L88.3568 0.995301L88.0553 1.06718L87.7531 1.15433L87.4527 1.25539L87.4456 1.25773L87.4388 1.26043L87.154 1.37343L87.1467 1.37614L87.1395 1.37971L86.8603 1.50834L86.8531 1.51166L86.8463 1.51536L86.5752 1.65826L86.5682 1.6622L86.5608 1.66639L86.2999 1.8232L86.2922 1.82788L86.2848 1.83293L86.0207 2.01461L86.014 2.01928L86.0076 2.02421L85.7766 2.20244L85.7696 2.20773L85.5021 2.44123L85.4958 2.44677L85.4893 2.45305L85.2636 2.67473L85.2578 2.68052L85.2519 2.6868L85.0361 2.92424L85.0302 2.93039L85.0252 2.93679L84.825 3.18309L84.8201 3.18913L84.8157 3.19516L84.6258 3.455L84.4382 3.73884L84.4025 3.79903H78.226L78.0237 4.38617H72.0717L72.0231 4.27404L71.9403 4.099L71.8526 3.92828L71.7597 3.76149L71.6598 3.59458L71.5548 3.43223L71.4451 3.27492L71.3297 3.11921L71.2104 2.96916L71.0859 2.82256L70.9557 2.67843L70.825 2.54278L70.6487 2.37021L70.5054 2.23814L70.3606 2.11295L70.21 1.98913L70.056 1.8701L69.8964 1.75378L69.7213 1.63414L69.5296 1.51326L69.3466 1.40544L69.2316 1.34266L69.0458 1.24727L68.9291 1.19175L68.7273 1.10226L68.5335 1.02398L68.4221 0.982377L68.3052 0.942127L68.0935 0.875289L67.8785 0.815713L67.6585 0.763893L67.4503 0.72278L67.3253 0.701732L67.1088 0.671944L66.8876 0.648434L66.6612 0.633171L66.5459 0.628987L66.35 0.625416H56.115L55.354 3.922L52.515 3.91806L51.0184 3.91289L50.6849 3.91572L50.3644 3.92151L50.05 3.93086L49.7405 3.94797L49.4369 3.97247L49.1333 4.0073L48.8247 4.05494L48.5167 4.11808L48.5091 4.11968L48.5016 4.12177L48.2338 4.19218L48.2253 4.19452L48.2173 4.19711L47.912 4.29742L47.9035 4.30001L47.8951 4.30333L47.6377 4.4055L47.6274 4.40968L47.6173 4.4146L47.3332 4.55308L47.3235 4.55764L47.3144 4.56305L47.0397 4.72245L47.0296 4.72824L47.02 4.73476L46.7333 4.93318L46.7251 4.93872L46.7175 4.945L46.4741 5.13849L46.467 5.1444L46.4598 5.15068L46.2277 5.36092L46.2215 5.36646L46.0573 5.53263L45.9677 5.39341L45.7351 5.03953L45.5023 4.6971L45.2669 4.36439L45.0219 4.03611L44.7663 3.71657L44.4975 3.40552L44.2064 3.09853L44.2011 3.09349L43.9084 2.8153L43.9022 2.80952L43.8957 2.80422L43.6065 2.55878L43.5997 2.553L43.5928 2.54795L43.2515 2.29156L43.2438 2.28553L43.2355 2.28023L42.8876 2.0535L42.8795 2.04809L42.871 2.04329L42.5064 1.83859L42.4981 1.83416L42.4899 1.82997L42.1073 1.64571L42.0985 1.64152L42.0896 1.63783L41.6832 1.474L41.6753 1.47092L41.6672 1.46821L41.2625 1.33133L41.2553 1.329L41.248 1.3269L40.8282 1.20911L40.3799 1.1062L39.9183 1.02164L39.4409 0.951849L38.9429 0.89609L38.4245 0.852641L37.8794 0.820636L37.3092 0.798973L36.7076 0.786296L31.6077 0.753676L33.9518 3.91868H24.3784L22.3289 8.68951V0.251594L19.5744 0.271658L19.0776 0.28249L18.6049 0.301815L18.149 0.329018L17.7139 0.365206L17.2932 0.411241L16.8894 0.466756L16.4954 0.534209L16.1153 0.6136L15.7461 0.706287L15.3883 0.812266L15.0395 0.934248L14.7046 1.06965L14.6976 1.07273L14.6906 1.07593L14.3768 1.22302L14.3693 1.22634L14.3625 1.23003L14.0658 1.38919L14.0587 1.39288L14.0521 1.39706L13.7664 1.57038L13.7597 1.57431L13.7533 1.57874L13.4848 1.76215L13.2173 1.96451L13.2113 1.96894L13.2056 1.97374L12.9663 2.17475L12.7288 2.39175L12.5075 2.61134L12.2974 2.83463L12.149 3.0024L9.90287 0.267472H2.03323L0 9.58154H1.66923V22.2583H10.8368V15.3477L12.3568 17.0358L13.5261 15.5607V22.2583L21.3087 22.2573L22.8185 22.2601L23.3313 22.2594L23.5834 22.2567L23.8314 22.2518L24.0742 22.2444L24.3186 22.2332L24.561 22.2174L24.8091 22.1951L25.0524 22.1667L25.3023 22.1298L25.5556 22.0819L25.8148 22.0208L26.0677 21.9481L26.3012 21.8688L26.3094 21.8661L26.3175 21.8626L26.5784 21.7557L26.5871 21.7525L26.5956 21.7481L26.8379 21.6303L26.8468 21.6259L26.8558 21.6207L27.0916 21.485L27.099 21.4808L27.106 21.4762L27.3082 21.344L27.3176 21.3377L27.3266 21.3308L27.5507 21.1584L27.5598 21.1512L27.8051 20.9295L27.8127 20.9225L27.8198 20.9154L28.0118 20.7162L28.0185 20.709L28.0249 20.7016L28.1913 20.5043L28.1972 20.4976L28.2024 20.4903L28.3789 20.2539L28.3848 20.2459L28.3902 20.2375L28.3951 20.2299H30.1197L30.451 22.2583H44.9102L46.2713 20.0176L46.4182 20.2332L46.6409 20.5519L46.8663 20.8636L47.0978 21.1688L47.3397 21.4683L47.5945 21.7609L47.865 22.0452L47.8703 22.051L47.876 22.0564L48.1534 22.3182L48.1594 22.3238L48.1653 22.3289L48.4515 22.5715L48.4589 22.5773L48.4664 22.5831L48.7652 22.8057L48.7719 22.8103L48.7787 22.815L49.0945 23.0237L49.1041 23.0302L49.1145 23.0357L49.4968 23.2472L49.5051 23.2517L49.5134 23.2558L49.8772 23.4279L49.8858 23.4318L49.8945 23.4354L50.2735 23.5852L50.2815 23.5885L50.2898 23.5912L50.6967 23.7246L51.1038 23.8338L51.5285 23.9273L51.9679 24.0042L52.4215 24.066L52.8966 24.1155L53.3902 24.1535L53.9103 24.1814L54.458 24.2L55.0357 24.2111L59.8829 24.2379L58.8093 22.6544H66.1916L66.3225 22.6535L66.5862 22.6442L66.8442 22.6274L67.1042 22.6012L67.3028 22.5745L67.5494 22.5336L67.7387 22.4955L67.9334 22.4499L68.1801 22.3824L68.4145 22.3078L68.5971 22.242L68.8241 22.1514L69.007 22.0708L69.2311 21.962L69.4513 21.8447L69.669 21.718L69.8318 21.6154L70.0447 21.4727L70.2183 21.3471L70.3846 21.2206L70.5474 21.0908L70.7057 20.957L70.7508 20.9165V22.7263H88.8423L88.7973 20.1228L88.7784 19.7938L88.7465 19.4731L88.701 19.1546L88.6425 18.847L88.5665 18.5298L88.5642 18.5224L88.4806 18.2392L88.4783 18.2318L88.4757 18.2243L88.3761 17.9418L88.3732 17.9337L88.3697 17.9255L88.2586 17.6604L88.2555 17.6534L88.2524 17.6465L88.1378 17.409L88.1339 17.401L88.1295 17.3934L87.9891 17.1406L87.9852 17.1334L87.9807 17.1259L87.8268 16.883L87.822 16.8746L87.8163 16.8672L87.6493 16.6364L87.644 16.6293L87.6385 16.6223L87.4587 16.4027L87.4527 16.3955L87.4465 16.3888L87.2557 16.1833L87.2492 16.1767L87.2426 16.1702L87.0235 15.9619L87.0166 15.9552L87.0091 15.949L86.7895 15.7665L86.7829 15.7608L86.776 15.7556L86.5581 15.5951L86.5512 15.5902L86.5445 15.5857L86.3209 15.4394L86.3139 15.4347L86.3066 15.4305L86.0769 15.2982L86.0705 15.2944L86.0637 15.2909L85.8329 15.1731L85.583 15.0609L85.3341 14.9635L85.0814 14.8778L84.8314 14.8041L84.5781 14.7407L84.3368 14.6912L84.3391 14.6873L84.343 14.68L84.4741 14.4396L84.5988 14.1831L84.7094 13.9303L84.8112 13.6733L84.9033 13.4182L84.9896 13.1596L85.071 12.8984L85.9589 9.8719H88.8526L88.8779 22.7263H98.1551V9.94834H101.076L103.403 0H94.4799Z" fill="white"/>
<path fill-rule="evenodd" clip-rule="evenodd" d="M28.469 14.2124L29.8687 10.2093L30.9393 14.2124H28.469ZM33.6907 5.81116H25.6056L23.9366 9.69648H25.0015L21.5039 20.3649L22.2807 20.3663L22.8179 20.3681L23.3157 20.3672L23.5509 20.3647L23.7778 20.3605L23.9957 20.3532L24.2055 20.3442L24.4088 20.3309L24.6049 20.3147L24.7938 20.2926L24.9764 20.2665L25.1533 20.2341L25.3249 20.1953L25.4904 20.149L25.6511 20.0953L25.8069 20.0328L25.9572 19.9615L26.1016 19.8807L26.2406 19.7893L26.3733 19.6878L26.4999 19.5763L26.6198 19.4543L26.7331 19.3218L26.8402 19.1797L26.9419 19.0268L27.0376 18.8635L27.1289 18.6901L27.2154 18.5059L27.2862 18.3381H31.7067L32.0381 20.3658H37.3212L33.6907 5.81116Z" fill="white"/>
<path fill-rule="evenodd" clip-rule="evenodd" d="M64.339 9.78392H62.7047V7.42638H64.339C64.5418 7.42638 64.7298 7.4835 64.8961 7.57594L64.9212 7.58825L64.953 7.60597L64.9605 7.61126C65.2863 7.82015 65.5043 8.18609 65.5043 8.60509C65.5043 9.25636 64.9827 9.78392 64.339 9.78392ZM64.339 15.8066H62.7047V13.0771H64.339C64.9827 13.0771 65.5043 13.6881 65.5043 14.4419C65.5043 15.1953 64.9827 15.8066 64.339 15.8066ZM71.1301 15.7571L71.128 15.6649L71.1249 15.5743L71.121 15.4843L71.1161 15.3953L71.1104 15.3076L71.0966 15.1356L71.0884 15.0513L71.0791 14.9681L71.0685 14.8856L71.0578 14.804L71.0457 14.7241L71.0333 14.6451L71.0195 14.5671L71.0048 14.4899L70.9896 14.4144L70.9735 14.3393L70.9562 14.2655L70.9379 14.193L70.9191 14.121L70.8991 14.0508L70.8789 13.9813L70.8573 13.913L70.8351 13.8456L70.8114 13.7792L70.7873 13.7139L70.7625 13.6504L70.7365 13.587L70.7094 13.5255L70.6819 13.4637L70.6532 13.4032L70.6227 13.3426L70.5912 13.2824L70.5576 13.2216L70.5228 13.16L70.4861 13.0998L70.4481 13.0389L70.4082 12.9774L70.3668 12.9158L70.3239 12.8546L70.2797 12.7926L70.2341 12.7313L70.1865 12.6698L70.1379 12.608L70.0871 12.546L70.0352 12.484L69.9814 12.422L69.9266 12.3598L69.8699 12.2973L69.8117 12.2355L69.7519 12.1727L69.6905 12.1107L69.6274 12.0482L69.5631 11.9855L69.4974 11.9225L69.4301 11.8597L69.3607 11.7968L69.2182 11.6709L69.1444 11.6076L69.0691 11.5442L68.9926 11.4812L68.5284 11.1253L68.6736 11.0282L68.7812 10.9522L68.8857 10.8744L68.9876 10.7942L69.0857 10.712L69.1814 10.6281L69.2746 10.5419L69.3646 10.4536L69.4515 10.3634L69.5358 10.2712L69.6168 10.1766L69.6955 10.0802L69.7707 9.98234L69.8432 9.88153L69.9126 9.77912L69.9794 9.67425L70.043 9.56814L70.104 9.45958L70.162 9.34904L70.2176 9.23605L70.2695 9.12133L70.319 9.00464L70.3655 8.88598L70.4088 8.76486L70.4499 8.64202L70.4881 8.5172L70.5232 8.38993L70.5554 8.26093L70.5841 8.12947L70.6109 7.99654L70.6341 7.86101L70.655 7.72328L70.6605 7.68056L70.666 7.63871L70.6711 7.59846L70.6757 7.55994L70.6798 7.52252L70.684 7.48744L70.6874 7.45371L70.6908 7.42171L70.6936 7.39081L70.6961 7.36102L70.6977 7.33431L70.6993 7.30908L70.7006 7.28483L70.7014 7.26206L70.7024 7.24212V6.94424L70.7006 6.7969L70.6947 6.6524L70.6853 6.50949L70.6721 6.36917L70.655 6.23094L70.6341 6.0948L70.6095 5.96051L70.5808 5.82807L70.5487 5.69845L70.5131 5.57032L70.4729 5.44415L70.4295 5.32032L70.3819 5.19859L70.3309 5.07845L70.2761 4.96066L70.2171 4.8447L70.1547 4.73109L70.088 4.61957L70.018 4.50965L69.9441 4.40195L69.8657 4.29622L69.7842 4.19233L69.6983 4.09103L69.609 3.99083L69.5156 3.89359L69.4955 3.87402L69.4804 3.85802L69.383 3.76225L69.2815 3.66858L69.1763 3.57688L69.0678 3.48715L68.9545 3.39939L68.8379 3.31384L68.7173 3.22989L68.6495 3.18632L68.582 3.14373L68.5139 3.1036L68.4447 3.06335L68.3756 3.02507L68.306 2.98827L68.2363 2.95282L68.1657 2.91909L68.0946 2.88659L68.0236 2.85496L67.9515 2.82542L67.8789 2.79662L67.8071 2.76966L67.7337 2.74393L67.6601 2.71944L67.5865 2.69642L67.5115 2.67488L67.4371 2.65469L67.3622 2.63611L67.2864 2.61838L67.21 2.60263L67.1335 2.58773L67.0571 2.57444L66.9792 2.56287L66.9016 2.55265L66.8233 2.54342L66.7449 2.53567L66.6662 2.52939L66.5863 2.52385L66.5063 2.52102L66.4259 2.51893L66.3456 2.51831H57.5996L56.373 7.83209H57.4964L57.4995 20.7622H66.2243L66.2765 20.7614L66.3279 20.7604L66.4299 20.7577L66.4807 20.7556L66.5304 20.7523L66.5808 20.7494L66.6302 20.7463L66.6788 20.7423L66.7282 20.7381L66.7769 20.7335L66.8248 20.7289L66.8731 20.7235L66.9203 20.7177L66.9679 20.7117L67.015 20.7049L67.0607 20.6978L67.1071 20.6905L67.1533 20.6831L67.1994 20.6753L67.2444 20.6664L67.3344 20.6483L67.3787 20.6381L67.4226 20.6282L67.4658 20.6178L67.5091 20.6067L67.5523 20.5955L67.6374 20.5719L67.6793 20.5588L67.7213 20.546L67.7624 20.5332L67.8043 20.5191L67.8459 20.5051L67.8874 20.49L67.9292 20.4751L67.9699 20.4594L68.0107 20.4436L68.0518 20.4271L68.0932 20.4101L68.1338 20.3924L68.1747 20.3748L68.2158 20.3562L68.256 20.3379L68.2959 20.3188L68.3365 20.2991L68.3768 20.2793L68.4169 20.2583L68.457 20.2374L68.4976 20.2159L68.5366 20.1945L68.5763 20.1722L68.6165 20.1494L68.6557 20.1264L68.6953 20.1026L68.7349 20.0788L68.774 20.0544L68.813 20.0293L68.8523 20.0034L68.8907 19.9779L68.93 19.9515L68.9688 19.9254L69.1028 19.8295L69.2319 19.7314L69.3568 19.6319L69.4779 19.5304L69.5943 19.4268L69.7064 19.3218L69.814 19.2144L69.9179 19.1055L70.0176 18.9953L70.1121 18.8827L70.2033 18.7686L70.2899 18.6524L70.3718 18.5341L70.4499 18.4142L70.5239 18.293L70.5932 18.1694L70.6587 18.0443L70.7198 17.9173L70.7762 17.7881L70.8294 17.6577L70.8778 17.5248L70.9218 17.3901L70.9616 17.2541L70.9974 17.1166L71.0291 16.9763L71.0564 16.8345L71.0796 16.691L71.0987 16.5455L71.1132 16.3981L71.1235 16.2483L71.1297 16.0973L71.1322 15.9439L71.1313 15.85L71.1301 15.7571Z" fill="white"/>
<path fill-rule="evenodd" clip-rule="evenodd" d="M55.7335 21.4614L56.3195 22.326L55.0508 22.319L54.4976 22.3085L53.9807 22.2904L53.498 22.2643L53.047 22.2297L52.6246 22.1847L52.2306 22.1303L51.8613 22.0653L51.5155 21.9886L51.1899 21.8988L50.8845 21.7968L50.596 21.6807L50.3246 21.5506L50.0669 21.4056L49.8237 21.2455L49.5922 21.0706L49.3715 20.8821L49.1591 20.6783L48.9542 20.4604L48.7524 20.2275L48.554 19.9806L48.3555 19.7178L48.1545 19.4395L47.9485 19.1442L47.7361 18.8323L47.0348 17.7873L46.7727 17.4002L46.4928 16.9931L46.1934 16.5649L46.1823 16.55L46.1497 16.6037L46.0721 16.7319L45.8384 17.1164L45.7607 17.245L45.5275 17.6292L45.4489 17.758L45.216 18.1423L44.9821 18.5275L44.2814 19.6816L44.2037 19.81L43.8658 20.3659H38.447L42.8889 12.8301L35.3652 2.67041L36.6919 2.67915L37.2657 2.69109L37.8037 2.71177L38.3084 2.74168L38.782 2.78144L39.2257 2.83166L39.6408 2.89296L40.0317 2.9657L40.3993 3.05088L40.7452 3.14947L41.0706 3.26149L41.3788 3.38827L41.6698 3.53007L41.9444 3.68688L42.2054 3.85921L42.4535 4.04704L42.6902 4.25051L42.9174 4.469L43.1369 4.70225L43.3505 4.95151L43.561 5.21615L43.7691 5.49679L43.9788 5.79356L44.1912 6.10719L44.4089 6.43855L44.6339 6.78751L44.8681 7.15579L45.1134 7.54291L45.3729 7.95046L45.6471 8.37795L45.9392 8.82686L45.9508 8.84446L46.0646 8.6677L46.2511 8.38053L46.4283 8.11306L46.5973 7.86418L46.7601 7.6335L46.9181 7.41945L47.0725 7.22103L47.226 7.03849L47.3791 6.87023L47.5341 6.71575L47.692 6.57493L47.8546 6.44778L48.0229 6.33356L48.197 6.23287L48.378 6.14511L48.5664 6.07002L48.7617 6.00737L48.9651 5.9553L49.1778 5.91321L49.4 5.87997L49.6346 5.85437L49.8809 5.83517L50.1422 5.82138L50.4195 5.81289L50.715 5.80723L51.0289 5.80562H51.3639L51.7214 5.80686L52.5089 5.8103L53.5621 5.81215L49.5285 12.7926L49.6022 12.9012L49.8031 13.1954L50.0049 13.4875L50.2071 13.7776L50.4098 14.0664L50.613 14.3535L50.8167 14.639L51.0202 14.9226L51.2246 15.2061L51.429 15.4888L51.8384 16.051L52.4543 16.8911L53.2775 18.0111L53.6886 18.5737L53.8941 18.8561L54.0994 19.1395L54.3044 19.4241L54.5098 19.7102L54.7144 19.9979L54.9188 20.2866L55.1229 20.577L55.3268 20.8696L55.5302 21.1644L55.7335 21.4614Z" fill="white"/>
<path fill-rule="evenodd" clip-rule="evenodd" d="M86.9311 20.216L86.9407 20.8335H72.6228V10.6502H71.498L72.6159 6.27928H79.3535L79.556 5.69177H83.9367L82.7001 10.6145H77.5455V11.6537H83.4866L83.2809 12.3557L83.2092 12.5861L83.135 12.8057L83.0595 13.0157L82.9795 13.2154L82.8957 13.4057L82.8062 13.5878L82.7104 13.7607L82.6068 13.9245L82.4957 14.079L82.3756 14.2247L82.2458 14.3611L82.1069 14.4874L81.9581 14.6041L81.7985 14.7103L81.6296 14.8062L81.451 14.8931L81.2616 14.97L81.0616 15.0391L80.851 15.0993L80.6285 15.1519L80.3937 15.198L80.1458 15.237L79.8842 15.2708L79.6069 15.299L79.3151 15.3225L79.0065 15.3413L78.6805 15.3555L78.3367 15.3661H77.5455V16.4489H83.0367L83.2354 16.4579L83.4323 16.4726L83.6255 16.4932L83.8165 16.52L84.0048 16.5526L84.1893 16.5918L84.3709 16.6378L84.5484 16.6908L84.722 16.751L84.8917 16.8188L85.0568 16.894L85.2176 16.978L85.3731 17.0697L85.5227 17.1701L85.6668 17.2784L85.8059 17.3964L85.9372 17.5233L86.0618 17.6588L86.1793 17.8033L86.2887 17.9562L86.3906 18.1185L86.484 18.2889L86.5687 18.4685L86.646 18.6562L86.7132 18.8532L86.7723 19.0588L86.8219 19.2726L86.8629 19.4948L86.8949 19.7268L86.9176 19.9668L86.9311 20.216Z" fill="white"/>
<path fill-rule="evenodd" clip-rule="evenodd" d="M101.038 1.89282L99.5967 8.05579H96.284V20.8337H90.7444L90.7361 16.8599L90.7306 14.0475L90.7304 13.6463L90.7292 13.2446L90.7191 8.02219V7.97935H84.8418L85.0397 7.189L85.1304 6.85862L85.226 6.54302L85.3249 6.24244L85.4296 5.95638L85.5394 5.6841L85.6542 5.42549L85.7748 5.1803L85.9004 4.94827L86.0319 4.72844L86.1701 4.52165L86.3152 4.32667L86.4653 4.1445L86.6233 3.97402L86.7868 3.81548L86.9584 3.66888L87.1354 3.53373L87.3188 3.41002L87.5087 3.29813L87.7046 3.19658L87.9065 3.10599L88.1148 3.02512L88.3277 2.95447L88.5477 2.89317L88.7727 2.84037L89.0033 2.79605L89.2402 2.75925L89.4829 2.72959L89.7316 2.70706L89.9868 2.69093L90.2488 2.68047L90.5157 2.67542L95.8509 2.63062L96.0017 1.89282H101.038Z" fill="white"/>
<path fill-rule="evenodd" clip-rule="evenodd" d="M19.6127 2.1635L20.4599 2.15759V20.3659H15.3977V10.1782L12.2677 14.1256L8.96808 10.4604V20.3659H3.54116V7.68936H2.33008L3.5369 2.16018H9.02709L9.23877 2.41743L10.7197 4.22131L10.9119 4.45457L11.5389 5.21858L11.6435 5.34561L12.194 6.01645L12.319 5.84893L12.6811 5.36001L12.8538 5.12935L13.0224 4.90766L13.1883 4.69435L13.3535 4.48879L13.5186 4.29295L13.6853 4.1045L13.8557 3.92442L14.0296 3.75246L14.2097 3.58912L14.3962 3.4344L14.5915 3.28866L14.7954 3.15142L15.0094 3.02377L15.2337 2.90561L15.4706 2.79704L15.7197 2.69734L15.9824 2.60748L16.2595 2.52612L16.5526 2.45387L16.8625 2.38999L17.1905 2.33497L17.5382 2.28733L17.9061 2.24806L18.2963 2.21569L18.7103 2.19132L19.1482 2.17396L19.6127 2.1635Z" fill="white"/>
</svg>
